<svg width="36" height="36" viewBox="0 0 36 36" fill="none" xmlns="http://www.w3.org/2000/svg">
<path d="M18 21.2C18.3165 21.2 18.6258 21.1062 18.8889 20.9304C19.152 20.7545 19.3571 20.5047 19.4782 20.2123C19.5993 19.9199 19.631 19.5982 19.5693 19.2879C19.5075 18.9775 19.3551 18.6924 19.1314 18.4686C18.9076 18.2449 18.6225 18.0925 18.3121 18.0307C18.0018 17.969 17.6801 18.0007 17.3877 18.1218C17.0953 18.2429 16.8455 18.448 16.6696 18.7111C16.4938 18.9742 16.4 19.2836 16.4 19.6C16.4 20.0243 16.5686 20.4313 16.8686 20.7314C17.1687 21.0314 17.5757 21.2 18 21.2ZM26 21.2C26.3165 21.2 26.6258 21.1062 26.8889 20.9304C27.152 20.7545 27.3571 20.5047 27.4782 20.2123C27.5993 19.9199 27.631 19.5982 27.5693 19.2879C27.5075 18.9775 27.3551 18.6924 27.1314 18.4686C26.9076 18.2449 26.6225 18.0925 26.3121 18.0307C26.0018 17.969 25.6801 18.0007 25.3877 18.1218C25.0953 18.2429 24.8455 18.448 24.6696 18.7111C24.4938 18.9742 24.4 19.2836 24.4 19.6C24.4 20.0243 24.5686 20.4313 24.8686 20.7314C25.1687 21.0314 25.5757 21.2 26 21.2ZM18 27.6C18.3165 27.6 18.6258 27.5062 18.8889 27.3304C19.152 27.1545 19.3571 26.9047 19.4782 26.6123C19.5993 26.3199 19.631 25.9982 19.5693 25.6879C19.5075 25.3775 19.3551 25.0924 19.1314 24.8686C18.9076 24.6449 18.6225 24.4925 18.3121 24.4307C18.0018 24.369 17.6801 24.4007 17.3877 24.5218C17.0953 24.6429 16.8455 24.848 16.6696 25.1111C16.4938 25.3742 16.4 25.6836 16.4 26C16.4 26.4243 16.5686 26.8313 16.8686 27.1314C17.1687 27.4314 17.5757 27.6 18 27.6ZM26 27.6C26.3165 27.6 26.6258 27.5062 26.8889 27.3304C27.152 27.1545 27.3571 26.9047 27.4782 26.6123C27.5993 26.3199 27.631 25.9982 27.5693 25.6879C27.5075 25.3775 27.3551 25.0924 27.1314 24.8686C26.9076 24.6449 26.6225 24.4925 26.3121 24.4307C26.0018 24.369 25.6801 24.4007 25.3877 24.5218C25.0953 24.6429 24.8455 24.848 24.6696 25.1111C24.4938 25.3742 24.4 25.6836 24.4 26C24.4 26.4243 24.5686 26.8313 24.8686 27.1314C25.1687 27.4314 25.5757 27.6 26 27.6ZM10 21.2C10.3165 21.2 10.6258 21.1062 10.8889 20.9304C11.152 20.7545 11.3571 20.5047 11.4782 20.2123C11.5993 19.9199 11.631 19.5982 11.5693 19.2879C11.5075 18.9775 11.3551 18.6924 11.1314 18.4686C10.9076 18.2449 10.6225 18.0925 10.3121 18.0307C10.0018 17.969 9.68007 18.0007 9.38771 18.1218C9.09535 18.2429 8.84546 18.448 8.66965 18.7111C8.49384 18.9742 8.4 19.2836 8.4 19.6C8.4 20.0243 8.56857 20.4313 8.86863 20.7314C9.16869 21.0314 9.57565 21.2 10 21.2ZM29.2 5.2H27.6V3.6C27.6 3.17565 27.4314 2.76869 27.1314 2.46863C26.8313 2.16857 26.4243 2 26 2C25.5757 2 25.1687 2.16857 24.8686 2.46863C24.5686 2.76869 24.4 3.17565 24.4 3.6V5.2H11.6V3.6C11.6 3.17565 11.4314 2.76869 11.1314 2.46863C10.8313 2.16857 10.4243 2 10 2C9.57565 2 9.16869 2.16857 8.86863 2.46863C8.56857 2.76869 8.4 3.17565 8.4 3.6V5.2H6.8C5.52696 5.2 4.30606 5.70571 3.40589 6.60589C2.50571 7.50606 2 8.72696 2 10V29.2C2 30.473 2.50571 31.6939 3.40589 32.5941C4.30606 33.4943 5.52696 34 6.8 34H29.2C30.473 34 31.6939 33.4943 32.5941 32.5941C33.4943 31.6939 34 30.473 34 29.2V10C34 8.72696 33.4943 7.50606 32.5941 6.60589C31.6939 5.70571 30.473 5.2 29.2 5.2V5.2ZM30.8 29.2C30.8 29.6243 30.6314 30.0313 30.3314 30.3314C30.0313 30.6314 29.6243 30.8 29.2 30.8H6.8C6.37565 30.8 5.96869 30.6314 5.66863 30.3314C5.36857 30.0313 5.2 29.6243 5.2 29.2V14.8H30.8V29.2ZM30.8 11.6H5.2V10C5.2 9.57565 5.36857 9.16869 5.66863 8.86863C5.96869 8.56857 6.37565 8.4 6.8 8.4H29.2C29.6243 8.4 30.0313 8.56857 30.3314 8.86863C30.6314 9.16869 30.8 9.57565 30.8 10V11.6ZM10 27.6C10.3165 27.6 10.6258 27.5062 10.8889 27.3304C11.152 27.1545 11.3571 26.9047 11.4782 26.6123C11.5993 26.3199 11.631 25.9982 11.5693 25.6879C11.5075 25.3775 11.3551 25.0924 11.1314 24.8686C10.9076 24.6449 10.6225 24.4925 10.3121 24.4307C10.0018 24.369 9.68007 24.4007 9.38771 24.5218C9.09535 24.6429 8.84546 24.848 8.66965 25.1111C8.49384 25.3742 8.4 25.6836 8.4 26C8.4 26.4243 8.56857 26.8313 8.86863 27.1314C9.16869 27.4314 9.57565 27.6 10 27.6Z" fill="white" stroke="#CDD0E3" stroke-width="2.5"/>
</svg>