<svg width="32" height="33" viewBox="0 0 32 33" fill="none" xmlns="http://www.w3.org/2000/svg">
<path d="M16 20.0401C16.3165 20.0401 16.6258 19.9462 16.8889 19.7704C17.152 19.5946 17.3571 19.3447 17.4782 19.0524C17.5993 18.76 17.631 18.4383 17.5693 18.1279C17.5075 17.8176 17.3551 17.5325 17.1314 17.3087C16.9076 17.085 16.6225 16.9326 16.3121 16.8708C16.0018 16.8091 15.6801 16.8408 15.3877 16.9619C15.0953 17.083 14.8455 17.2881 14.6696 17.5512C14.4938 17.8143 14.4 18.1236 14.4 18.4401C14.4 18.8644 14.5686 19.2714 14.8686 19.5715C15.1687 19.8715 15.5757 20.0401 16 20.0401ZM24 20.0401C24.3165 20.0401 24.6258 19.9462 24.8889 19.7704C25.152 19.5946 25.3571 19.3447 25.4782 19.0524C25.5993 18.76 25.631 18.4383 25.5693 18.1279C25.5075 17.8176 25.3551 17.5325 25.1314 17.3087C24.9076 17.085 24.6225 16.9326 24.3121 16.8708C24.0018 16.8091 23.6801 16.8408 23.3877 16.9619C23.0953 17.083 22.8455 17.2881 22.6696 17.5512C22.4938 17.8143 22.4 18.1236 22.4 18.4401C22.4 18.8644 22.5686 19.2714 22.8686 19.5715C23.1687 19.8715 23.5757 20.0401 24 20.0401ZM16 26.4401C16.3165 26.4401 16.6258 26.3463 16.8889 26.1704C17.152 25.9946 17.3571 25.7447 17.4782 25.4524C17.5993 25.16 17.631 24.8383 17.5693 24.5279C17.5075 24.2176 17.3551 23.9325 17.1314 23.7087C16.9076 23.485 16.6225 23.3326 16.3121 23.2708C16.0018 23.2091 15.6801 23.2408 15.3877 23.3619C15.0953 23.483 14.8455 23.6881 14.6696 23.9512C14.4938 24.2143 14.4 24.5236 14.4 24.8401C14.4 25.2644 14.5686 25.6714 14.8686 25.9715C15.1687 26.2715 15.5757 26.4401 16 26.4401ZM24 26.4401C24.3165 26.4401 24.6258 26.3463 24.8889 26.1704C25.152 25.9946 25.3571 25.7447 25.4782 25.4524C25.5993 25.16 25.631 24.8383 25.5693 24.5279C25.5075 24.2176 25.3551 23.9325 25.1314 23.7087C24.9076 23.485 24.6225 23.3326 24.3121 23.2708C24.0018 23.2091 23.6801 23.2408 23.3877 23.3619C23.0953 23.483 22.8455 23.6881 22.6696 23.9512C22.4938 24.2143 22.4 24.5236 22.4 24.8401C22.4 25.2644 22.5686 25.6714 22.8686 25.9715C23.1687 26.2715 23.5757 26.4401 24 26.4401ZM8 20.0401C8.31645 20.0401 8.62579 19.9462 8.88891 19.7704C9.15203 19.5946 9.35711 19.3447 9.47821 19.0524C9.59931 18.76 9.63099 18.4383 9.56926 18.1279C9.50752 17.8176 9.35513 17.5325 9.13137 17.3087C8.90761 17.085 8.62251 16.9326 8.31214 16.8708C8.00177 16.8091 7.68007 16.8408 7.38771 16.9619C7.09535 17.083 6.84546 17.2881 6.66965 17.5512C6.49384 17.8143 6.4 18.1236 6.4 18.4401C6.4 18.8644 6.56857 19.2714 6.86863 19.5715C7.16869 19.8715 7.57565 20.0401 8 20.0401ZM27.2 4.04009H25.6V2.44009C25.6 2.01574 25.4314 1.60878 25.1314 1.30872C24.8313 1.00866 24.4243 0.840088 24 0.840088C23.5757 0.840088 23.1687 1.00866 22.8686 1.30872C22.5686 1.60878 22.4 2.01574 22.4 2.44009V4.04009H9.6V2.44009C9.6 2.01574 9.43143 1.60878 9.13137 1.30872C8.83131 1.00866 8.42435 0.840088 8 0.840088C7.57565 0.840088 7.16869 1.00866 6.86863 1.30872C6.56857 1.60878 6.4 2.01574 6.4 2.44009V4.04009H4.8C3.52696 4.04009 2.30606 4.5458 1.40589 5.44598C0.505713 6.34615 0 7.56705 0 8.84009V28.0401C0 29.3131 0.505713 30.534 1.40589 31.4342C2.30606 32.3344 3.52696 32.8401 4.8 32.8401H27.2C28.473 32.8401 29.6939 32.3344 30.5941 31.4342C31.4943 30.534 32 29.3131 32 28.0401V8.84009C32 7.56705 31.4943 6.34615 30.5941 5.44598C29.6939 4.5458 28.473 4.04009 27.2 4.04009V4.04009ZM28.8 28.0401C28.8 28.4644 28.6314 28.8714 28.3314 29.1715C28.0313 29.4715 27.6243 29.6401 27.2 29.6401H4.8C4.37565 29.6401 3.96869 29.4715 3.66863 29.1715C3.36857 28.8714 3.2 28.4644 3.2 28.0401V13.6401H28.8V28.0401ZM28.8 10.4401H3.2V8.84009C3.2 8.41574 3.36857 8.00878 3.66863 7.70872C3.96869 7.40866 4.37565 7.24009 4.8 7.24009H27.2C27.6243 7.24009 28.0313 7.40866 28.3314 7.70872C28.6314 8.00878 28.8 8.41574 28.8 8.84009V10.4401ZM8 26.4401C8.31645 26.4401 8.62579 26.3463 8.88891 26.1704C9.15203 25.9946 9.35711 25.7447 9.47821 25.4524C9.59931 25.16 9.63099 24.8383 9.56926 24.5279C9.50752 24.2176 9.35513 23.9325 9.13137 23.7087C8.90761 23.485 8.62251 23.3326 8.31214 23.2708C8.00177 23.2091 7.68007 23.2408 7.38771 23.3619C7.09535 23.483 6.84546 23.6881 6.66965 23.9512C6.49384 24.2143 6.4 24.5236 6.4 24.8401C6.4 25.2644 6.56857 25.6714 6.86863 25.9715C7.16869 26.2715 7.57565 26.4401 8 26.4401Z" fill="#0C7ECF"/>
</svg>
