<svg width="37" height="36" viewBox="0 0 37 36" fill="none" xmlns="http://www.w3.org/2000/svg">
<path d="M27.1616 19.8133L21.2 25.1111H13.2V23.3333H19.704C19.8487 23.3333 19.9907 23.2896 20.1148 23.2069C20.2389 23.1243 20.3406 23.0058 20.4089 22.864C20.4772 22.7223 20.5096 22.5626 20.5027 22.402C20.4958 22.2414 20.4498 22.0859 20.3696 21.952L18.9488 19.584C18.6573 19.0965 18.2618 18.6968 17.7976 18.4204C17.3333 18.1441 16.8147 17.9996 16.288 18H3.6C3.17565 18 2.76869 18.1873 2.46863 18.5207C2.16857 18.8541 2 19.3063 2 19.7778V30.4444C2 31.3874 2.33714 32.2918 2.93726 32.9586C3.53737 33.6254 4.35131 34 5.2 34H20.6224C21.3066 34.0002 21.9829 33.8378 22.606 33.5239C23.2291 33.2099 23.7846 32.7516 24.2352 32.1796L34 19.7778L31.6768 18.9173C30.9167 18.6358 30.1053 18.5703 29.3166 18.7268C28.5279 18.8834 27.787 19.2569 27.1616 19.8133ZM29.6128 9.80444C30.3344 8.97778 30.7808 7.83467 30.7808 6.57244C30.7808 5.31022 30.3344 4.16711 29.6128 3.34044C29.2479 2.91729 28.8098 2.58044 28.3248 2.35009C27.8397 2.11975 27.3179 2.00067 26.7904 2C26.7904 2 24.8 1.99467 22.8 4.28622C20.8 1.99467 18.8096 2 18.8096 2C18.2823 2.00075 17.7606 2.11969 17.2756 2.3497C16.7906 2.57972 16.3524 2.91608 15.9872 3.33867C15.2656 4.16711 14.8192 5.30844 14.8192 6.57067C14.8192 7.83289 15.2656 8.97778 15.9872 9.80267L22.8 18L29.6128 9.80444Z" fill="white" stroke="#CDD0E3" stroke-width="2.5"/>
</svg>
