<svg width="120" height="120" viewBox="0 0 120 120" fill="none" xmlns="http://www.w3.org/2000/svg">
<circle cx="60" cy="60" r="55" stroke="white" stroke-width="10"/>
<path d="M59.9999 5C90.3756 5 115 29.6243 115 60C115 90.3757 90.3756 115 59.9999 115C45.9134 115 33.0638 109.704 23.3333 100.995" stroke="#0C7ECF" stroke-width="10"/>
<g filter="url(#filter0_d_0_1)">
<path d="M57.6367 60.415C54.3164 60.415 51.6797 59.5687 49.7266 57.876C49.515 57.0622 49.3604 56.1263 49.2627 55.0684C49.1813 54.0104 49.1569 52.9036 49.1895 51.748L52.3633 55.7275C53.6654 56.8343 55.3255 57.3877 57.3438 57.3877C59.6061 57.3877 60.7373 56.0938 60.7373 53.5059C60.7373 52.0898 60.4281 50.9993 59.8096 50.2344C59.2074 49.4694 58.3285 49.0869 57.1729 49.0869H55.2441L55.4883 45.9619L57.417 46.1572C60.4932 46.1572 62.8532 46.7513 64.4971 47.9395C66.1572 49.1113 66.9873 50.7959 66.9873 52.9932C66.9873 55.2555 66.141 57.0622 64.4482 58.4131C62.7718 59.7477 60.5013 60.415 57.6367 60.415ZM55.0732 57.8516L50.0684 56.7773L49.1895 51.748H51.875L55.0732 57.8516ZM49.9707 43.7891L50.5566 39.1992L55.9033 37.71L52.7051 43.7891H49.9707ZM56.8066 48.3789L55.4883 45.9619H57.0508C59.0527 45.9619 60.0537 44.7738 60.0537 42.3975C60.0537 41.1442 59.7933 40.1839 59.2725 39.5166C58.7516 38.8493 58.0029 38.5156 57.0264 38.5156C55.6266 38.5156 54.2594 38.9876 52.9248 39.9316L49.9707 43.7891C49.9382 42.6335 49.9626 41.5267 50.0439 40.4688C50.1416 39.3945 50.2962 38.4587 50.5078 37.6611C51.6309 36.9938 52.9248 36.473 54.3896 36.0986C55.8545 35.708 57.2705 35.5127 58.6377 35.5127C60.9326 35.5127 62.7555 36.0661 64.1064 37.1729C65.4736 38.2633 66.1572 39.7445 66.1572 41.6162C66.1572 43.6833 65.3109 45.3271 63.6182 46.5479C61.9417 47.7686 59.6712 48.3789 56.8066 48.3789ZM20.9414 78.1406C20.127 78.1406 19.4502 77.9531 18.9111 77.5781C18.8643 77.3613 18.8291 77.1123 18.8057 76.8311C18.7822 76.5439 18.7793 76.251 18.7969 75.9521H19.4824L20.2031 77.4639L19.6318 76.9365C20.0771 77.2236 20.5605 77.3672 21.082 77.3672C21.8379 77.3672 22.2158 77.0654 22.2158 76.4619C22.2158 76.0166 21.9111 75.6943 21.3018 75.4951L20.5811 75.2666C19.4443 74.9092 18.876 74.2588 18.876 73.3154C18.876 72.7002 19.0928 72.2109 19.5264 71.8477C19.96 71.4844 20.54 71.3027 21.2666 71.3027C21.9229 71.3027 22.5117 71.4375 23.0332 71.707C23.1328 72.1523 23.1738 72.6416 23.1562 73.1748H22.4355L21.7148 71.6631L22.5762 72.4893C22.0723 72.2139 21.5889 72.0762 21.126 72.0762C20.4814 72.0762 20.1592 72.3545 20.1592 72.9111C20.1592 73.3623 20.4844 73.6934 21.1348 73.9043L21.8555 74.1328C22.4238 74.3145 22.8457 74.5635 23.1211 74.8799C23.3965 75.1963 23.5342 75.5889 23.5342 76.0576C23.5342 76.6963 23.2998 77.2031 22.8311 77.5781C22.3623 77.9531 21.7324 78.1406 20.9414 78.1406ZM27.9375 78.1406C26.877 78.1406 26.0596 77.8535 25.4854 77.2793C24.9111 76.7051 24.624 75.8848 24.624 74.8184C24.624 73.7344 24.9053 72.876 25.4678 72.2432C26.0303 71.6045 26.7891 71.2852 27.7441 71.2852C28.5996 71.2852 29.2588 71.5547 29.7217 72.0938C30.1846 72.627 30.416 73.3945 30.416 74.3965C30.416 74.4844 30.4131 74.5723 30.4072 74.6602C30.4014 74.748 30.3926 74.833 30.3809 74.915L28.9043 74.6338C28.9043 73.7373 28.7959 73.0898 28.5791 72.6914C28.3682 72.293 28.0225 72.0938 27.542 72.0938C26.6045 72.0938 26.1357 72.835 26.1357 74.3174C26.1357 76.1865 26.8828 77.1211 28.377 77.1211C28.9629 77.1211 29.5752 77.001 30.2139 76.7607L30.1523 77.5869C29.877 77.7627 29.5459 77.9004 29.1592 78C28.7783 78.0938 28.3711 78.1406 27.9375 78.1406ZM25.1953 74.915V74.1943H30.2402L30.3809 74.915H25.1953ZM33.6152 78.1406C32.8008 78.1406 32.124 77.9531 31.585 77.5781C31.5381 77.3613 31.5029 77.1123 31.4795 76.8311C31.4561 76.5439 31.4531 76.251 31.4707 75.9521H32.1562L32.877 77.4639L32.3057 76.9365C32.751 77.2236 33.2344 77.3672 33.7559 77.3672C34.5117 77.3672 34.8896 77.0654 34.8896 76.4619C34.8896 76.0166 34.585 75.6943 33.9756 75.4951L33.2549 75.2666C32.1182 74.9092 31.5498 74.2588 31.5498 73.3154C31.5498 72.7002 31.7666 72.2109 32.2002 71.8477C32.6338 71.4844 33.2139 71.3027 33.9404 71.3027C34.5967 71.3027 35.1855 71.4375 35.707 71.707C35.8066 72.1523 35.8477 72.6416 35.8301 73.1748H35.1094L34.3887 71.6631L35.25 72.4893C34.7461 72.2139 34.2627 72.0762 33.7998 72.0762C33.1553 72.0762 32.833 72.3545 32.833 72.9111C32.833 73.3623 33.1582 73.6934 33.8086 73.9043L34.5293 74.1328C35.0977 74.3145 35.5195 74.5635 35.7949 74.8799C36.0703 75.1963 36.208 75.5889 36.208 76.0576C36.208 76.6963 35.9736 77.2031 35.5049 77.5781C35.0361 77.9531 34.4062 78.1406 33.6152 78.1406ZM39.4336 78.1406C38.6191 78.1406 37.9424 77.9531 37.4033 77.5781C37.3564 77.3613 37.3213 77.1123 37.2979 76.8311C37.2744 76.5439 37.2715 76.251 37.2891 75.9521H37.9746L38.6953 77.4639L38.124 76.9365C38.5693 77.2236 39.0527 77.3672 39.5742 77.3672C40.3301 77.3672 40.708 77.0654 40.708 76.4619C40.708 76.0166 40.4033 75.6943 39.7939 75.4951L39.0732 75.2666C37.9365 74.9092 37.3682 74.2588 37.3682 73.3154C37.3682 72.7002 37.585 72.2109 38.0186 71.8477C38.4521 71.4844 39.0322 71.3027 39.7588 71.3027C40.415 71.3027 41.0039 71.4375 41.5254 71.707C41.625 72.1523 41.666 72.6416 41.6484 73.1748H40.9277L40.207 71.6631L41.0684 72.4893C40.5645 72.2139 40.0811 72.0762 39.6182 72.0762C38.9736 72.0762 38.6514 72.3545 38.6514 72.9111C38.6514 73.3623 38.9766 73.6934 39.627 73.9043L40.3477 74.1328C40.916 74.3145 41.3379 74.5635 41.6133 74.8799C41.8887 75.1963 42.0264 75.5889 42.0264 76.0576C42.0264 76.6963 41.792 77.2031 41.3232 77.5781C40.8545 77.9531 40.2246 78.1406 39.4336 78.1406ZM44.0303 77.9473V72.0674L45.4365 71.9004V77.9473H44.0303ZM44.0303 73.5264V72.4014L44.2412 72.7881L43.0283 72.208L43.0635 71.8389C43.3213 71.7217 43.6201 71.6221 43.96 71.54C44.2998 71.458 44.6631 71.3994 45.0498 71.3643H45.4365V72.7617L44.0303 73.5264ZM43.0811 78L43.125 77.4727C43.2773 77.4023 43.4414 77.3408 43.6172 77.2881C43.7988 77.2295 43.9951 77.1768 44.2061 77.1299L44.0303 77.7803V76.5762H45.4365V77.7803L45.2871 77.2002L46.4209 77.4551L46.377 78H43.0811ZM44.6016 70.2305C44.3145 70.2305 44.0859 70.1484 43.916 69.9844C43.752 69.8203 43.6699 69.5977 43.6699 69.3164C43.6699 69.0352 43.752 68.8125 43.916 68.6484C44.0859 68.4844 44.3145 68.4023 44.6016 68.4023C44.8887 68.4023 45.1143 68.4844 45.2783 68.6484C45.4482 68.8125 45.5332 69.0352 45.5332 69.3164C45.5332 69.5977 45.4482 69.8203 45.2783 69.9844C45.1143 70.1484 44.8887 70.2305 44.6016 70.2305ZM50.5166 78.1582C49.5439 78.1582 48.7705 77.8506 48.1963 77.2354C47.6221 76.6143 47.335 75.7822 47.335 74.7393C47.335 73.6846 47.625 72.8467 48.2051 72.2256C48.7852 71.5986 49.5645 71.2852 50.543 71.2852C51.5156 71.2852 52.2861 71.5957 52.8545 72.2168C53.4287 72.832 53.7158 73.6641 53.7158 74.7129C53.7158 75.7676 53.4258 76.6055 52.8457 77.2266C52.2715 77.8477 51.4951 78.1582 50.5166 78.1582ZM50.666 77.332C51.668 77.332 52.1689 76.5381 52.1689 74.9502C52.1689 74.0361 52.0137 73.3359 51.7031 72.8496C51.3984 72.3574 50.959 72.1113 50.3848 72.1113C49.3828 72.1113 48.8818 72.9053 48.8818 74.4932C48.8818 75.4072 49.0371 76.1104 49.3477 76.6025C49.6582 77.0889 50.0977 77.332 50.666 77.332ZM59.6572 77.9473V73.5176C59.6572 72.7148 59.2705 72.3135 58.4971 72.3135C57.8877 72.3135 57.2725 72.5596 56.6514 73.0518L56.4756 72.6123C56.833 72.1904 57.2432 71.8652 57.7061 71.6367C58.1689 71.4082 58.6553 71.2939 59.165 71.2939C59.7744 71.2939 60.2432 71.4639 60.5713 71.8037C60.8994 72.1377 61.0635 72.6182 61.0635 73.2451V77.9473H59.6572ZM55.6846 77.9473V72.0762L57.0908 72.4453V77.9473H55.6846ZM54.7881 78L54.832 77.4727C55.002 77.3906 55.1719 77.3232 55.3418 77.2705C55.5117 77.2178 55.6816 77.1709 55.8516 77.1299L55.6846 77.7803V76.5762H57.0908V77.7803L56.9502 77.2002L58.0225 77.4551L57.9785 78H54.7881ZM58.9189 78L58.9629 77.4375C59.0859 77.373 59.2178 77.3174 59.3584 77.2705C59.499 77.2178 59.6543 77.1709 59.8242 77.1299L59.6572 77.7803V76.5762H61.0635V77.7803L60.9229 77.2002L61.9951 77.4551L61.9512 78H58.9189ZM55.6846 73.5264V72.4014L55.8955 72.7881L54.6826 72.208L54.7178 71.8389C54.9756 71.7217 55.2744 71.6221 55.6143 71.54C55.9541 71.458 56.3174 71.3994 56.7041 71.3643L57.0381 72.7617L55.6846 73.5264ZM65.0449 78.1406C64.2305 78.1406 63.5537 77.9531 63.0146 77.5781C62.9678 77.3613 62.9326 77.1123 62.9092 76.8311C62.8857 76.5439 62.8828 76.251 62.9004 75.9521H63.5859L64.3066 77.4639L63.7354 76.9365C64.1807 77.2236 64.6641 77.3672 65.1855 77.3672C65.9414 77.3672 66.3193 77.0654 66.3193 76.4619C66.3193 76.0166 66.0146 75.6943 65.4053 75.4951L64.6846 75.2666C63.5479 74.9092 62.9795 74.2588 62.9795 73.3154C62.9795 72.7002 63.1963 72.2109 63.6299 71.8477C64.0635 71.4844 64.6436 71.3027 65.3701 71.3027C66.0264 71.3027 66.6152 71.4375 67.1367 71.707C67.2363 72.1523 67.2773 72.6416 67.2598 73.1748H66.5391L65.8184 71.6631L66.6797 72.4893C66.1758 72.2139 65.6924 72.0762 65.2295 72.0762C64.585 72.0762 64.2627 72.3545 64.2627 72.9111C64.2627 73.3623 64.5879 73.6934 65.2383 73.9043L65.959 74.1328C66.5273 74.3145 66.9492 74.5635 67.2246 74.8799C67.5 75.1963 67.6377 75.5889 67.6377 76.0576C67.6377 76.6963 67.4033 77.2031 66.9346 77.5781C66.4658 77.9531 65.8359 78.1406 65.0449 78.1406ZM75.2842 77.0508C75.2842 76.5645 75.29 76.0693 75.3018 75.5654C75.3135 75.0557 75.3193 74.5781 75.3193 74.1328V73.3594C75.3193 72.5273 74.915 72.1113 74.1064 72.1113C73.5732 72.1113 73.0811 72.2812 72.6299 72.6211L72.0674 73.333C72.0498 72.8291 72.0791 72.3691 72.1553 71.9531C72.9404 71.5137 73.7695 71.2939 74.6426 71.2939C76.0195 71.2939 76.708 71.9502 76.708 73.2627C76.708 73.4268 76.7051 73.6729 76.6992 74.001C76.6934 74.3232 76.6875 74.6719 76.6816 75.0469C76.6758 75.416 76.6699 75.7646 76.6641 76.0928C76.6582 76.415 76.6553 76.6641 76.6553 76.8398L75.2842 77.0508ZM72.0674 73.333L72.1904 72.3311L73.5352 71.8213L72.8145 73.333H72.0674ZM73.4824 78.1318C72.9258 78.1318 72.4834 77.9736 72.1553 77.6572C71.8271 77.335 71.6631 76.9043 71.6631 76.3652C71.6631 75.1992 72.5098 74.4375 74.2031 74.0801L75.6357 73.7812L75.7236 74.5371L74.4668 74.6953C73.9863 74.7539 73.6377 74.8857 73.4209 75.0908C73.2041 75.29 73.0957 75.5889 73.0957 75.9873C73.0957 76.7607 73.4297 77.1475 74.0977 77.1475C74.5664 77.1475 75.1113 76.9277 75.7324 76.4883L75.8906 76.8047C75.1816 77.6895 74.3789 78.1318 73.4824 78.1318ZM75.6357 78.0264L75.3369 76.8838L76.6553 76.5059V77.4639L76.4619 77.1123L77.5342 77.4199L77.4902 77.9297C77.0098 78.0059 76.3916 78.0381 75.6357 78.0264ZM80.2852 78.0527L78.3867 72.0234L78.7734 72.2783L77.7012 72.0234L77.7451 71.4434H80.7686L80.7246 72.0234C80.6016 72.082 80.4551 72.1377 80.2852 72.1904C80.1152 72.2432 79.9453 72.29 79.7754 72.3311L79.8809 72.0674L81.3574 77.3232L81.5332 78.0088C81.416 78.0264 81.2871 78.041 81.1465 78.0527C81.0059 78.0645 80.8623 78.0703 80.7158 78.0703C80.5693 78.0703 80.4258 78.0645 80.2852 78.0527ZM80.6895 77.877L82.5088 71.6104L83.4404 71.6191L81.5332 78.0088L80.6895 77.877ZM84.249 78.0527L82.5703 72.1729L82.5088 71.6104C82.6729 71.5811 82.8633 71.5635 83.0801 71.5576C83.2969 71.5459 83.499 71.5459 83.6865 71.5576L85.3037 77.3232L85.4971 78.0088C85.3799 78.0264 85.251 78.041 85.1104 78.0527C84.9697 78.0645 84.8262 78.0703 84.6797 78.0703C84.5332 78.0703 84.3896 78.0645 84.249 78.0527ZM84.6533 77.877L86.3496 72.0322L86.4199 72.2783L85.4443 72.0234L85.4883 71.4434H88.002L87.958 72.0059C87.8174 72.082 87.6621 72.1494 87.4922 72.208C87.3281 72.2607 87.1611 72.3076 86.9912 72.3486L87.3691 72.041L85.4971 78.0088L84.6533 77.877ZM92.1064 77.0508C92.1064 76.5645 92.1123 76.0693 92.124 75.5654C92.1357 75.0557 92.1416 74.5781 92.1416 74.1328V73.3594C92.1416 72.5273 91.7373 72.1113 90.9287 72.1113C90.3955 72.1113 89.9033 72.2812 89.4521 72.6211L88.8896 73.333C88.8721 72.8291 88.9014 72.3691 88.9775 71.9531C89.7627 71.5137 90.5918 71.2939 91.4648 71.2939C92.8418 71.2939 93.5303 71.9502 93.5303 73.2627C93.5303 73.4268 93.5273 73.6729 93.5215 74.001C93.5156 74.3232 93.5098 74.6719 93.5039 75.0469C93.498 75.416 93.4922 75.7646 93.4863 76.0928C93.4805 76.415 93.4775 76.6641 93.4775 76.8398L92.1064 77.0508ZM88.8896 73.333L89.0127 72.3311L90.3574 71.8213L89.6367 73.333H88.8896ZM90.3047 78.1318C89.748 78.1318 89.3057 77.9736 88.9775 77.6572C88.6494 77.335 88.4854 76.9043 88.4854 76.3652C88.4854 75.1992 89.332 74.4375 91.0254 74.0801L92.458 73.7812L92.5459 74.5371L91.2891 74.6953C90.8086 74.7539 90.46 74.8857 90.2432 75.0908C90.0264 75.29 89.918 75.5889 89.918 75.9873C89.918 76.7607 90.252 77.1475 90.9199 77.1475C91.3887 77.1475 91.9336 76.9277 92.5547 76.4883L92.7129 76.8047C92.0039 77.6895 91.2012 78.1318 90.3047 78.1318ZM92.458 78.0264L92.1592 76.8838L93.4775 76.5059V77.4639L93.2842 77.1123L94.3564 77.4199L94.3125 77.9297C93.832 78.0059 93.2139 78.0381 92.458 78.0264ZM97.5029 81.0938C97.0225 81.0293 96.5742 80.9004 96.1582 80.707L97.6611 77.8066L97.9424 77.5781L99.999 72.041L100.052 72.2783L99.0762 72.0234L99.1201 71.4434H101.634L101.59 72.0059C101.467 72.082 101.323 72.1494 101.159 72.208C100.995 72.2607 100.828 72.3076 100.658 72.3486L101.054 72.0498L97.5029 81.0938ZM97.626 78.457L95.165 72.0322L95.5605 72.2783L94.4883 72.0234L94.5322 71.4434H97.5908L97.5469 72.0234C97.4238 72.082 97.2773 72.1377 97.1074 72.1904C96.9375 72.2432 96.7676 72.29 96.5977 72.3311L96.7031 72.1113L98.5664 77.4463V78.0088L97.626 78.457Z" fill="#505050"/>
</g>
<path d="M61.2031 99L61.2422 98.5312C61.3672 98.4583 61.5026 98.3984 61.6484 98.3516C61.7995 98.3047 61.9505 98.263 62.1016 98.2266L61.6328 98.5234L63.7891 95.8672L64.7188 95.9062L62.6641 98.5234L62.6719 98.2891L63.5391 98.5156L63.5 99H61.2031ZM64.4844 99L64.5234 98.5156C64.6328 98.4583 64.763 98.4089 64.9141 98.3672C65.0651 98.3203 65.2161 98.2786 65.3672 98.2422L65.3359 98.4375L63.7969 96.3281L64.8047 95.7969L66.8281 98.5703L66.3203 98.2891L67.2734 98.5156L67.2344 99H64.4844ZM64.0547 93.1719L64.0156 93.6875C63.9062 93.7396 63.776 93.7891 63.625 93.8359C63.474 93.8828 63.3229 93.9245 63.1719 93.9609L63.2188 93.7344L64.7578 95.8438L63.75 96.375L61.7266 93.6016L62.2344 93.9141L61.2812 93.6875L61.3203 93.1719H64.0547ZM67.1641 93.1719L67.125 93.6719C67 93.7396 66.862 93.7995 66.7109 93.8516C66.5651 93.8984 66.4167 93.9401 66.2656 93.9766L66.7344 93.6484L64.5781 96.3047L63.6484 96.2656L65.7031 93.6484L65.7109 93.9141L64.8438 93.6875L64.8828 93.1719H67.1641ZM70.1116 99.1328C69.1845 99.1328 68.4241 98.8776 67.8303 98.3672C67.7678 98.1328 67.7235 97.875 67.6975 97.5938C67.6715 97.3073 67.6636 97.0052 67.6741 96.6875L68.3772 97.8516C68.8355 98.2161 69.3824 98.3984 70.0178 98.3984C70.9709 98.3984 71.4475 97.9167 71.4475 96.9531C71.4475 96.375 71.2834 95.9323 70.9553 95.625C70.6324 95.3125 70.1689 95.1562 69.5647 95.1562C69.4189 95.1562 69.2235 95.1667 68.9788 95.1875C68.7392 95.2031 68.5126 95.2292 68.2991 95.2656L68.4006 94.5547C68.6975 94.4661 69.0074 94.3984 69.3303 94.3516C69.6532 94.3047 69.9449 94.2812 70.2053 94.2812C71.0074 94.2812 71.6428 94.4948 72.1116 94.9219C72.5855 95.349 72.8225 95.9297 72.8225 96.6641C72.8225 97.4193 72.5777 98.0208 72.0881 98.4688C71.6038 98.9115 70.9449 99.1328 70.1116 99.1328ZM69.2288 98.5938L67.8459 98.125L67.6741 96.6875H68.3069L69.2288 98.5938ZM68.2991 95.2656L67.9631 95.0234L68.1819 91.5L68.9319 91.5469L68.7131 95.0547L68.2991 95.2656ZM68.6038 92.5312L68.1819 91.5H72.5022L72.4163 92.5312H68.6038Z" fill="#505050"/>
<path d="M49.1719 99.5391C51.2171 99.5391 52.875 97.9441 52.875 95.9766C52.875 94.009 51.2171 92.4141 49.1719 92.4141C47.1267 92.4141 45.4688 94.009 45.4688 95.9766C45.4688 97.9441 47.1267 99.5391 49.1719 99.5391Z" fill="#83BF4F"/>
<path d="M49.1719 95.3906C51.1135 95.3906 52.6875 93.8796 52.6875 92.0156C52.6875 90.1517 51.1135 88.6406 49.1719 88.6406C47.2302 88.6406 45.6562 90.1517 45.6562 92.0156C45.6562 93.8796 47.2302 95.3906 49.1719 95.3906Z" fill="#83BF4F"/>
<path d="M53.0156 94.4531C55.022 94.4531 56.6484 92.8896 56.6484 90.9609C56.6484 89.0323 55.022 87.4688 53.0156 87.4688C51.0093 87.4688 49.3828 89.0323 49.3828 90.9609C49.3828 92.8896 51.0093 94.4531 53.0156 94.4531Z" fill="#83BF4F"/>
<path d="M56.4844 96.6094C58.1671 96.6094 59.5313 95.2977 59.5313 93.6797C59.5313 92.0617 58.1671 90.75 56.4844 90.75C54.8016 90.75 53.4375 92.0617 53.4375 93.6797C53.4375 95.2977 54.8016 96.6094 56.4844 96.6094Z" fill="#83BF4F"/>
<path d="M54.2578 99.3516C55.9406 99.3516 57.3047 98.0399 57.3047 96.4219C57.3047 94.8039 55.9406 93.4922 54.2578 93.4922C52.5751 93.4922 51.2109 94.8039 51.2109 96.4219C51.2109 98.0399 52.5751 99.3516 54.2578 99.3516Z" fill="#83BF4F"/>
<path d="M51.7735 102C51.8438 101.063 51.7032 100.078 51.5625 99.0469C51.4219 98.0156 51.2344 96.9609 51.2344 95.8828C51.211 94.8047 51.3516 93.7031 51.7266 92.6953C52.0782 91.6875 52.6172 90.7734 53.25 89.9531C52.711 90.8437 52.3125 91.8047 52.1016 92.8125C51.8907 93.7969 51.8907 94.8281 52.0313 95.8125C52.1719 96.7969 52.4532 97.7812 52.7579 98.7891C53.0391 99.7969 53.3438 100.852 53.4141 102H51.7735Z" fill="black"/>
<path d="M51.6562 95.4844C52.125 95.5313 52.6406 95.5078 53.1328 95.4609C53.625 95.4141 54.1172 95.2969 54.5859 95.1328C55.0547 94.9688 55.5 94.7344 55.8984 94.4297C56.2969 94.125 56.6484 93.75 56.9062 93.3047C56.6719 93.75 56.3672 94.1719 55.9687 94.5234C55.5937 94.875 55.1484 95.1328 54.6562 95.3438C54.1875 95.5547 53.6719 95.6953 53.1797 95.8125C52.6641 95.9063 52.1484 95.9766 51.6094 95.9531L51.6562 95.4844ZM51.5156 95.1563C51.1641 94.9453 50.8594 94.7109 50.5781 94.4766C50.2969 94.2188 50.0156 93.9375 49.7812 93.6563C49.3125 93.0469 48.9609 92.3203 48.9141 91.5703C49.0312 92.3203 49.4531 92.9766 49.9687 93.4922C50.2266 93.75 50.5078 93.9844 50.8125 94.1953C51.1172 94.4063 51.4453 94.5938 51.75 94.7344L51.5156 95.1563V95.1563ZM51.8906 97.8281C51.4922 97.8047 51.1172 97.7344 50.7422 97.6406C50.3672 97.5469 50.0156 97.4063 49.6641 97.2188C48.9844 96.8438 48.3984 96.3047 48.0469 95.625C48.4687 96.2578 49.0781 96.7266 49.7578 96.9844C50.0859 97.125 50.4609 97.2188 50.8125 97.2891C51.1641 97.3594 51.5391 97.3828 51.8906 97.3594V97.8281" fill="black"/>
<path d="M47.2969 96.8203C47.2969 97.3359 46.875 97.7578 46.875 97.7578C46.875 97.7578 46.4531 97.3359 46.4531 96.8203C46.4531 96.3047 46.875 95.8828 46.875 95.8828C46.875 95.8828 47.2969 96.3047 47.2969 96.8203ZM58.1484 94.8047C58.1484 95.3203 57.7266 95.7422 57.7266 95.7422C57.7266 95.7422 57.3047 95.3203 57.3047 94.8047C57.3047 94.2891 57.7266 93.8672 57.7266 93.8672C57.7266 93.8672 58.1484 94.2891 58.1484 94.8047ZM48.4687 98.0156C48.4687 98.5312 48.0469 98.9531 48.0469 98.9531C48.0469 98.9531 47.625 98.5312 47.625 98.0156C47.625 97.5 48.0469 97.0781 48.0469 97.0781C48.0469 97.0781 48.4687 97.5 48.4687 98.0156ZM47.2969 91.8984C47.2969 92.4141 46.875 92.8359 46.875 92.8359C46.875 92.8359 46.4531 92.4141 46.4531 91.8984C46.4531 91.3828 46.875 90.9609 46.875 90.9609C46.875 90.9609 47.2969 91.3828 47.2969 91.8984ZM48.4687 90.5391C48.4687 91.0547 48.0469 91.4766 48.0469 91.4766C48.0469 91.4766 47.625 91.0547 47.625 90.5391C47.625 90.0234 48.0469 89.6016 48.0469 89.6016C48.0469 89.6016 48.4687 90.0234 48.4687 90.5391ZM54.4922 91.2187C54.4922 91.7344 54.0703 92.1562 54.0703 92.1562C54.0703 92.1562 53.6719 91.7344 53.6719 91.2187C53.6719 90.7031 54.0937 90.2812 54.0937 90.2812C54.0937 90.2812 54.4922 90.7031 54.4922 91.2187ZM55.6641 89.9531C55.6641 90.4687 55.2422 90.8906 55.2422 90.8906C55.2422 90.8906 54.8203 90.4687 54.8203 89.9531C54.8203 89.4375 55.2422 89.0156 55.2422 89.0156C55.2422 89.0156 55.6641 89.4375 55.6641 89.9531V89.9531ZM50.2031 95.3906C50.2031 95.9062 49.7812 96.3281 49.7812 96.3281C49.7812 96.3281 49.3594 95.9062 49.3594 95.3906C49.3594 94.875 49.7812 94.4531 49.7812 94.4531C49.7812 94.4531 50.2031 94.875 50.2031 95.3906ZM48.8906 94.1953C48.8906 94.7109 48.4687 95.1328 48.4687 95.1328C48.4687 95.1328 48.0469 94.7109 48.0469 94.1953C48.0469 93.6797 48.4687 93.2578 48.4687 93.2578C48.4687 93.2578 48.8906 93.6797 48.8906 94.1953ZM51.1172 91.8984C51.1172 92.4141 50.6953 92.8359 50.6953 92.8359C50.6953 92.8359 50.2734 92.4141 50.2734 91.8984C50.2734 91.3828 50.6953 90.9609 50.6953 90.9609C50.6953 90.9609 51.1172 91.3828 51.1172 91.8984ZM52.0312 90.2812C52.0312 90.7969 51.6094 91.2187 51.6094 91.2187C51.6094 91.2187 51.1875 90.7969 51.1875 90.2812C51.1875 89.7656 51.6094 89.3437 51.6094 89.3437C51.6094 89.3437 52.0312 89.7656 52.0312 90.2812ZM53.2969 94.1953C53.2969 94.7109 52.875 95.1328 52.875 95.1328C52.875 95.1328 52.4531 94.7109 52.4531 94.1953C52.4531 93.6797 52.875 93.2578 52.875 93.2578C52.875 93.2578 53.2969 93.6797 53.2969 94.1953V94.1953ZM56.4844 96.3281C56.4844 96.8437 56.0625 97.2656 56.0625 97.2656C56.0625 97.2656 55.6406 96.8437 55.6406 96.3281C55.6406 95.8125 56.0625 95.3906 56.0625 95.3906C56.0625 95.3906 56.4844 95.8125 56.4844 96.3281ZM55.6641 92.4141C55.6641 92.9297 55.2422 93.3516 55.2422 93.3516C55.2422 93.3516 54.8203 92.9297 54.8203 92.4141C54.8203 91.8984 55.2422 91.4766 55.2422 91.4766C55.2422 91.4766 55.6641 91.8984 55.6641 92.4141ZM54.2578 97.0781C54.2578 97.5937 53.8359 98.0156 53.8359 98.0156C53.8359 98.0156 53.4141 97.5937 53.4141 97.0781C53.4141 96.5625 53.8359 96.1406 53.8359 96.1406C53.8359 96.1406 54.2578 96.5625 54.2578 97.0781ZM55.3594 98.1328C55.3594 98.6484 54.9375 99.0703 54.9375 99.0703C54.9375 99.0703 54.5156 98.6484 54.5156 98.1328C54.5156 97.6172 54.9375 97.1953 54.9375 97.1953C54.9375 97.1953 55.3594 97.6172 55.3594 98.1328Z" fill="#75A843"/>
<defs>
<filter id="filter0_d_0_1" x="14.7705" y="35.5127" width="90.8633" height="53.5811" filterUnits="userSpaceOnUse" color-interpolation-filters="sRGB">
<feFlood flood-opacity="0" result="BackgroundImageFix"/>
<feColorMatrix in="SourceAlpha" type="matrix" values="0 0 0 0 0 0 0 0 0 0 0 0 0 0 0 0 0 0 127 0" result="hardAlpha"/>
<feOffset dy="4"/>
<feGaussianBlur stdDeviation="2"/>
<feComposite in2="hardAlpha" operator="out"/>
<feColorMatrix type="matrix" values="0 0 0 0 0 0 0 0 0 0 0 0 0 0 0 0 0 0 0.25 0"/>
<feBlend mode="normal" in2="BackgroundImageFix" result="effect1_dropShadow_0_1"/>
<feBlend mode="normal" in="SourceGraphic" in2="effect1_dropShadow_0_1" result="shape"/>
</filter>
</defs>
</svg>
