<svg width="32" height="33" viewBox="0 0 32 33" fill="none" xmlns="http://www.w3.org/2000/svg">
<path d="M25.1616 18.6534L19.2 23.9511H11.2V22.1734H17.704C17.8487 22.1733 17.9907 22.1296 18.1148 22.0469C18.2389 21.9643 18.3406 21.8458 18.4089 21.704C18.4772 21.5623 18.5096 21.4026 18.5027 21.242C18.4958 21.0814 18.4498 20.9259 18.3696 20.792L16.9488 18.424C16.6573 17.9366 16.2618 17.5368 15.7976 17.2605C15.3333 16.9841 14.8147 16.8396 14.288 16.84H1.6C1.17565 16.84 0.768687 17.0273 0.468629 17.3607C0.168571 17.6941 0 18.1463 0 18.6178V29.2845C0 30.2275 0.337142 31.1318 0.937258 31.7986C1.53737 32.4654 2.35131 32.84 3.2 32.84H18.6224C19.3066 32.8402 19.9829 32.6779 20.606 32.3639C21.2291 32.0499 21.7846 31.5916 22.2352 31.0196L32 18.6178L29.6768 17.7574C28.9167 17.4758 28.1053 17.4104 27.3166 17.5669C26.5279 17.7234 25.787 18.0969 25.1616 18.6534ZM27.6128 8.64447C28.3344 7.8178 28.7808 6.67469 28.7808 5.41247C28.7808 4.15025 28.3344 3.00714 27.6128 2.18047C27.2479 1.75732 26.8098 1.42046 26.3248 1.19012C25.8397 0.959777 25.3179 0.840696 24.7904 0.840027C24.7904 0.840027 22.8 0.834693 20.8 3.12625C18.8 0.834693 16.8096 0.840027 16.8096 0.840027C16.2823 0.840772 15.7606 0.959712 15.2756 1.18973C14.7906 1.41975 14.3524 1.75611 13.9872 2.17869C13.2656 3.00714 12.8192 4.14847 12.8192 5.41069C12.8192 6.67292 13.2656 7.8178 13.9872 8.64269L20.8 16.84L27.6128 8.64447Z" fill="#0C7ECF"/>
</svg>
