<svg width="36" height="36" viewBox="0 0 36 36" fill="none" xmlns="http://www.w3.org/2000/svg">
<path d="M33.686 13.9556L24.1807 4.40367C20.7622 0.985479 15.2378 0.985479 11.8193 4.40367L2.31398 13.9556C2.00779 14.261 1.91581 14.7222 2.08122 15.1226C2.24662 15.5231 2.63657 15.7832 3.06801 15.781H4.67888V26.1939C4.68517 30.4141 8.08807 33.8337 12.2877 33.84H13.9214C14.51 33.8337 14.9839 33.3524 14.9839 32.7608V23.9896H21.0161V32.7608C21.0161 33.3524 21.49 33.8337 22.0786 33.84H23.7123C27.9119 33.8337 31.3148 30.4141 31.3211 26.1939V15.781H32.932C33.3634 15.7832 33.7534 15.5231 33.9188 15.1226C34.0842 14.7222 33.9922 14.261 33.686 13.9556Z" fill="white"/>
<path d="M33.686 13.9556L32.8 14.8373L32.8032 14.8405L33.686 13.9556ZM24.1807 4.40367L25.0668 3.52195L25.0646 3.51975L24.1807 4.40367ZM11.8193 4.40367L10.9354 3.51975L10.9332 3.52195L11.8193 4.40367ZM2.31398 13.9556L3.1968 14.8405L3.20003 14.8373L2.31398 13.9556ZM3.06801 15.781V14.531L3.06152 14.531L3.06801 15.781ZM4.67888 15.781H5.92888V14.531H4.67888V15.781ZM4.67888 26.1939H3.42888L3.42888 26.1958L4.67888 26.1939ZM12.2877 33.84L12.2858 35.09H12.2877V33.84ZM13.9214 33.84V35.0901L13.9348 35.09L13.9214 33.84ZM14.9839 32.7608H13.7339V32.7609L14.9839 32.7608ZM14.9839 23.9896V22.7396H13.7339V23.9896H14.9839ZM21.0161 23.9896H22.2661V22.7396H21.0161V23.9896ZM21.0161 32.7608L22.2661 32.7609V32.7608H21.0161ZM22.0786 33.84L22.0652 35.09H22.0786V33.84ZM23.7123 33.84V35.09H23.7142L23.7123 33.84ZM31.3211 26.1939L32.5711 26.1958V26.1939H31.3211ZM31.3211 15.781V14.531H30.0711V15.781H31.3211ZM32.932 15.781L32.9385 14.531H32.932V15.781ZM34.5721 13.0738L25.0668 3.52195L23.2947 5.28539L32.8 14.8373L34.5721 13.0738ZM25.0646 3.51975C21.1579 -0.386548 14.8421 -0.386548 10.9354 3.51975L12.7031 5.28759C15.6335 2.35751 20.3665 2.35751 23.2969 5.28759L25.0646 3.51975ZM10.9332 3.52195L1.42794 13.0738L3.20003 14.8373L12.7053 5.28539L10.9332 3.52195ZM1.43118 13.0706C0.766149 13.734 0.567877 14.7331 0.925899 15.5999L3.23653 14.6454C3.26374 14.7113 3.24943 14.788 3.19679 14.8405L1.43118 13.0706ZM0.925899 15.5999C1.28432 16.4676 2.13186 17.0359 3.0745 17.031L3.06152 14.531C3.14128 14.5306 3.20892 14.5786 3.23653 14.6454L0.925899 15.5999ZM3.06801 17.031H4.67888V14.531H3.06801V17.031ZM3.42888 15.781V26.1939H5.92888V15.781H3.42888ZM3.42888 26.1958C3.43619 31.0991 7.39156 35.0827 12.2858 35.09L12.2896 32.59C8.78457 32.5848 5.93415 29.7291 5.92888 26.1921L3.42888 26.1958ZM12.2877 35.09H13.9214V32.59H12.2877V35.09ZM13.9348 35.09C15.2142 35.0763 16.234 34.0318 16.2339 32.7608L13.7339 32.7609C13.7339 32.673 13.8059 32.5912 13.908 32.5901L13.9348 35.09ZM16.2339 32.7608V23.9896H13.7339V32.7608H16.2339ZM14.9839 25.2396H21.0161V22.7396H14.9839V25.2396ZM19.7661 23.9896V32.7608H22.2661V23.9896H19.7661ZM19.7661 32.7608C19.766 34.0318 20.7858 35.0763 22.0652 35.09L22.092 32.5901C22.1941 32.5912 22.2661 32.673 22.2661 32.7609L19.7661 32.7608ZM22.0786 35.09H23.7123V32.59H22.0786V35.09ZM23.7142 35.09C28.6084 35.0827 32.5638 31.0991 32.5711 26.1958L30.0711 26.1921C30.0658 29.7291 27.2154 32.5848 23.7104 32.59L23.7142 35.09ZM32.5711 26.1939V15.781H30.0711V26.1939H32.5711ZM31.3211 17.031H32.932V14.531H31.3211V17.031ZM32.9255 17.031C33.8681 17.0359 34.7157 16.4676 35.0741 15.5999L32.7635 14.6454C32.7911 14.5786 32.8587 14.5306 32.9385 14.531L32.9255 17.031ZM35.0741 15.5999C35.4321 14.7331 35.2339 13.734 34.5688 13.0706L32.8032 14.8405C32.7506 14.788 32.7363 14.7113 32.7635 14.6454L35.0741 15.5999Z" fill="#CDD0E3"/>
</svg>