<svg width="32" height="32" viewBox="0 0 32 32" fill="none" xmlns="http://www.w3.org/2000/svg">
<path fill-rule="evenodd" clip-rule="evenodd" d="M31.686 12.1155L22.1807 2.56364C18.7622 -0.854548 13.2378 -0.854548 9.81928 2.56364L0.313984 12.1155C0.0077916 12.421 -0.0841911 12.8822 0.0812151 13.2826C0.246621 13.683 0.636571 13.9432 1.06801 13.941H2.67888V24.3539C2.68517 28.5741 6.08807 31.9937 10.2877 32H11.9214C12.51 31.9937 12.9839 31.5124 12.9839 30.9208V22.1496H19.0161V30.9208C19.0161 31.5124 19.49 31.9937 20.0786 32H21.7123C25.9119 31.9937 29.3148 28.5741 29.3211 24.3539V13.941H30.932C31.3634 13.9432 31.7534 13.683 31.9188 13.2826C32.0842 12.8822 31.9922 12.421 31.686 12.1155ZM11.2435 4.12803C12.5043 2.94849 14.2155 2.28568 15.9999 2.28568C17.7843 2.28568 19.4955 2.94849 20.7563 4.12803L28.5713 11.4285H3.42847L11.2435 4.12803ZM21.837 29.7143C24.9225 29.7079 27.4223 27.236 27.4287 24.1847V13.7143H4.57153V24.1847C4.57795 27.236 7.07769 29.7079 10.1632 29.7143H10.7353V20.8831C10.7417 20.2883 11.2311 19.8095 11.8326 19.8095H20.1676C20.7691 19.8095 21.2586 20.2883 21.265 20.8831V29.7143H21.837Z" fill="#371B34"/>
<path d="M31.686 12.1155L22.1807 2.56364C18.7622 -0.854548 13.2378 -0.854548 9.81928 2.56364L0.313984 12.1155C0.0077916 12.421 -0.0841911 12.8822 0.0812151 13.2826C0.246621 13.683 0.636571 13.9432 1.06801 13.941H2.67888V24.3539C2.68517 28.5741 6.08807 31.9937 10.2877 32H11.9214C12.51 31.9937 12.9839 31.5124 12.9839 30.9208V22.1496H19.0161V30.9208C19.0161 31.5124 19.49 31.9937 20.0786 32H21.7123C25.9119 31.9937 29.3148 28.5741 29.3211 24.3539V13.941H30.932C31.3634 13.9432 31.7534 13.683 31.9188 13.2826C32.0842 12.8822 31.9922 12.421 31.686 12.1155Z" fill="#0C7ECF"/>
</svg>
