<svg width="27" height="27" viewBox="0 0 27 27" fill="none" xmlns="http://www.w3.org/2000/svg">
<path fill-rule="evenodd" clip-rule="evenodd" d="M24.4374 13.5431C24.4488 10.6423 23.3074 7.85579 21.2644 5.79655C19.2213 3.73731 16.4438 2.57402 13.543 2.5626C10.6423 2.55118 7.85576 3.69256 5.79652 5.73565C3.73728 7.77874 2.574 10.5562 2.56258 13.457C2.55116 16.3577 3.69254 19.1443 5.73562 21.2035C7.77871 23.2627 10.5561 24.426 13.4569 24.4374C16.3577 24.4489 19.1442 23.3075 21.2035 21.2644C23.2627 19.2213 24.426 16.4439 24.4374 13.5431V13.5431ZM1.00009 13.4508C1.01314 10.1356 2.34261 6.96141 4.69602 4.62646C7.04944 2.2915 10.234 0.987065 13.5492 1.00012C16.8644 1.01317 20.0386 2.34263 22.3736 4.69605C24.7085 7.04947 26.0129 10.234 25.9999 13.5492C25.9868 16.8644 24.6574 20.0386 22.304 22.3736C19.9505 24.7085 16.766 26.013 13.4508 25.9999C10.1356 25.9869 6.96138 24.6574 4.62643 22.304C2.29147 19.9506 0.987036 16.766 1.00009 13.4508V13.4508ZM12.6972 18.9657C12.6964 19.1729 12.7779 19.3719 12.9239 19.519C13.0698 19.6661 13.2682 19.7492 13.4754 19.75C13.6826 19.7508 13.8816 19.6693 14.0287 19.5233C14.1758 19.3774 14.2589 19.179 14.2597 18.9718L14.2953 9.92031L17.6352 13.2882C17.7814 13.4354 17.98 13.5186 18.1875 13.5195C18.3949 13.5203 18.5942 13.4386 18.7415 13.2925C18.8887 13.1464 18.9719 12.9478 18.9728 12.7403C18.9736 12.5328 18.8919 12.3336 18.7458 12.1863L14.0768 7.48037C14.0045 7.40733 13.9186 7.34927 13.8238 7.30951C13.729 7.26975 13.6274 7.24908 13.5246 7.24867C13.4218 7.24827 13.32 7.26814 13.2249 7.30715C13.1299 7.34616 13.0434 7.40355 12.9706 7.47601L8.26466 12.145C8.11739 12.2911 8.03419 12.4898 8.03337 12.6972C8.03256 12.9047 8.11419 13.104 8.2603 13.2513C8.40642 13.3985 8.60506 13.4817 8.81252 13.4826C9.01998 13.4834 9.21927 13.4017 9.36655 13.2556L12.7329 9.91416L12.6972 18.9657Z" fill="#8AD846"/>
</svg>
