<svg width="40" height="40" viewBox="0 0 40 40" fill="none" xmlns="http://www.w3.org/2000/svg">
<path d="M24.2851 25.0067L25.7151 28.0817C25.7151 28.0817 32.1434 29.4467 32.1434 32.6933C32.1434 35 29.2834 35 29.2834 35H21.6667L17.9167 32.9167" stroke="#090909" stroke-width="1.5" stroke-linecap="round" stroke-linejoin="round"/>
<path d="M15.715 25.0067L14.2867 28.0817C14.2867 28.0817 7.85669 29.4467 7.85669 32.6933C7.85669 35 10.7167 35 10.7167 35H14.1667L17.9167 32.9167L22.5 30" stroke="#090909" stroke-width="1.5" stroke-linecap="round" stroke-linejoin="round"/>
<path d="M5 26.5433C5 26.5433 8.57167 25.775 10.715 25.0067C12.8567 14.2433 19.2833 15.0117 20 15.0117C20.715 15.0117 27.1433 14.2433 29.285 25.0067C31.4283 25.7733 35 26.5433 35 26.5433H5ZM20 11.6667C20.8841 11.6667 21.7319 11.3155 22.357 10.6904C22.9821 10.0652 23.3333 9.21739 23.3333 8.33333C23.3333 7.44928 22.9821 6.60143 22.357 5.97631C21.7319 5.35119 20.8841 5 20 5C19.1159 5 18.2681 5.35119 17.643 5.97631C17.0179 6.60143 16.6667 7.44928 16.6667 8.33333C16.6667 9.21739 17.0179 10.0652 17.643 10.6904C18.2681 11.3155 19.1159 11.6667 20 11.6667Z" stroke="#090909" stroke-width="1.5" stroke-linecap="round" stroke-linejoin="round"/>
</svg>
