<svg width="20" height="20" viewBox="0 0 20 20" fill="none" xmlns="http://www.w3.org/2000/svg">
<path d="M10.0001 1.66666C5.40008 1.66666 1.66675 5.39999 1.66675 9.99999C1.66675 14.6 5.40008 18.3333 10.0001 18.3333C14.6001 18.3333 18.3334 14.6 18.3334 9.99999C18.3334 5.39999 14.6001 1.66666 10.0001 1.66666ZM10.0001 16.6667C6.32508 16.6667 3.33341 13.675 3.33341 9.99999C3.33341 6.32499 6.32508 3.33332 10.0001 3.33332C13.6751 3.33332 16.6667 6.32499 16.6667 9.99999C16.6667 13.675 13.6751 16.6667 10.0001 16.6667ZM13.4751 12.3L12.5584 11.3833C13.1501 10.275 13.0001 8.87499 12.0667 7.94166C11.7962 7.66891 11.4743 7.45259 11.1195 7.30524C10.7647 7.1579 10.3842 7.08247 10.0001 7.08332C9.97508 7.08332 9.95008 7.09166 9.92508 7.09166L10.8334 7.99999L9.95008 8.88332L7.59175 6.52499L9.95008 4.16666L10.8334 5.04999L10.0334 5.84999C11.0917 5.85832 12.1417 6.24999 12.9501 7.04999C14.3667 8.47499 14.5417 10.6833 13.4751 12.3V12.3ZM12.4084 13.475L10.0501 15.8333L9.16675 14.95L9.95841 14.1583C8.86938 14.1498 7.82752 13.7127 7.05841 12.9417C6.38011 12.2626 5.95669 11.3705 5.85954 10.4157C5.76239 9.46084 5.99744 8.50171 6.52508 7.69999L7.44175 8.61666C6.85008 9.72499 7.00008 11.125 7.93341 12.0583C8.51675 12.6417 9.29175 12.925 10.0667 12.9L9.16675 12L10.0501 11.1167L12.4084 13.475V13.475Z" fill="#0C7ECF"/>
</svg>
