<svg width="60" height="60" viewBox="0 0 60 60" fill="none" xmlns="http://www.w3.org/2000/svg">
<path d="M36.4277 37.51L38.5727 42.1225C38.5727 42.1225 48.2153 44.17 48.2153 49.04C48.2153 52.5 43.9252 52.5 43.9252 52.5H32.5002L26.8752 49.375" stroke="#090909" stroke-width="1.5" stroke-linecap="round" stroke-linejoin="round"/>
<path d="M23.5727 37.51L21.4302 42.1225C21.4302 42.1225 11.7852 44.17 11.7852 49.04C11.7852 52.5 16.0752 52.5 16.0752 52.5H21.2502L26.8752 49.375L33.7502 45" stroke="#090909" stroke-width="1.5" stroke-linecap="round" stroke-linejoin="round"/>
<path d="M7.5 39.815C7.5 39.815 12.8575 38.6625 16.0725 37.51C19.285 21.365 28.925 22.5175 30 22.5175C31.0725 22.5175 40.715 21.365 43.9275 37.51C47.1425 38.66 52.5 39.815 52.5 39.815H7.5ZM30 17.5C31.3261 17.5 32.5978 16.9732 33.5355 16.0355C34.4732 15.0979 35 13.8261 35 12.5C35 11.1739 34.4732 9.90215 33.5355 8.96447C32.5978 8.02678 31.3261 7.5 30 7.5C28.6739 7.5 27.4021 8.02678 26.4645 8.96447C25.5268 9.90215 25 11.1739 25 12.5C25 13.8261 25.5268 15.0979 26.4645 16.0355C27.4021 16.9732 28.6739 17.5 30 17.5Z" stroke="#090909" stroke-width="1.5" stroke-linecap="round" stroke-linejoin="round"/>
</svg>
