<svg width="150" height="117" viewBox="0 0 150 117" fill="none" xmlns="http://www.w3.org/2000/svg">
<rect width="150" height="117" fill="white"/>
<path d="M12.2822 10.0961L15.1475 18.2172L14.7168 17.9711L15.8594 18.2084L15.8066 18.85H12.4053L12.458 18.1908C12.7334 18.0678 13.0762 17.9652 13.4863 17.8832L13.3545 18.1293L10.9287 10.7025L10.6123 10.14C10.8467 10.1107 11.1133 10.0932 11.4121 10.0873C11.7109 10.0815 12.001 10.0844 12.2822 10.0961ZM11.623 10.1488L8.95996 18.2172L8.85449 17.9535L9.93555 18.2084L9.8916 18.85H7.11426L7.16699 18.226C7.30176 18.1498 7.45996 18.0854 7.6416 18.0326C7.82324 17.974 8.01367 17.9272 8.21289 17.892L7.76465 18.2172L10.6123 10.14L11.623 10.1488ZM9.06543 16.4242L9.35547 15.5014H13.2402L13.5391 16.4242H9.06543ZM17.2568 18.7973V12.2318C17.2568 11.558 17.377 10.9691 17.6172 10.4652C17.8633 9.95547 18.2031 9.5629 18.6367 9.28751C19.0703 9.00626 19.5771 8.86563 20.1572 8.86563C20.5029 8.86563 20.793 8.91251 21.0273 9.00626L20.9219 10.1752C20.5762 10.0932 20.2568 10.0522 19.9639 10.0522C19.5479 10.0522 19.2549 10.1693 19.085 10.4037C18.915 10.6381 18.8301 11.0453 18.8301 11.6254V12.6098L18.8477 12.7856V18.7973H17.2568ZM16.1934 13.1459L16.2549 12.4164C16.5771 12.3227 16.9346 12.2582 17.3271 12.2231H20.623L20.5527 13.1459H16.1934ZM16.4131 18.85L16.4658 18.2611C16.6299 18.1791 16.7969 18.1117 16.9668 18.059C17.1367 18.0063 17.3066 17.9594 17.4766 17.9184L17.2568 18.6215V17.3734H18.8477V18.6215L18.6543 17.9975L20.1924 18.2436L20.1484 18.85H16.4131ZM24.4814 19.0082C23.4736 19.0082 22.6709 18.6977 22.0732 18.0766C21.4814 17.4496 21.1855 16.6088 21.1855 15.5541C21.1855 14.4877 21.4844 13.641 22.082 13.0141C22.6855 12.3813 23.4941 12.0648 24.5078 12.0648C25.5156 12.0648 26.3154 12.3783 26.9072 13.0053C27.499 13.6264 27.7949 14.4672 27.7949 15.5277C27.7949 16.5941 27.4961 17.4408 26.8984 18.0678C26.3008 18.6947 25.4951 19.0082 24.4814 19.0082ZM24.6309 18.1029C25.5625 18.1029 26.0283 17.3236 26.0283 15.765C26.0283 14.8686 25.8818 14.1801 25.5889 13.6996C25.3018 13.2133 24.8887 12.9701 24.3496 12.9701C23.418 12.9701 22.9521 13.7494 22.9521 15.308C22.9521 16.2045 23.0957 16.8959 23.3828 17.3822C23.6758 17.8627 24.0918 18.1029 24.6309 18.1029ZM29.6143 18.7973V13.1723L31.2139 13.6205V18.7973H29.6143ZM28.7705 18.85L28.8232 18.2611C28.9873 18.1791 29.1543 18.1117 29.3242 18.059C29.4941 18.0063 29.6641 17.9594 29.834 17.9184L29.6143 18.6215V17.3734H31.2139V18.6215L31.0293 17.9975L32.4707 18.2436L32.4268 18.85H28.7705ZM30.8359 14.4906L30.6602 14.1391C30.9766 13.4301 31.3135 12.9203 31.6709 12.6098C32.0342 12.2934 32.459 12.1352 32.9453 12.1352C33.0215 12.1352 33.1006 12.1381 33.1826 12.144C33.2646 12.1498 33.335 12.1645 33.3936 12.1879L33.2881 13.5238C33.1768 13.5063 33.0566 13.4916 32.9277 13.4799C32.8047 13.4682 32.6992 13.4623 32.6113 13.4623C32.2363 13.4623 31.9082 13.5443 31.627 13.7084C31.3516 13.8666 31.0879 14.1273 30.8359 14.4906ZM29.6143 14.3588V13.2338L29.8691 13.6908L28.6562 13.0756L28.7002 12.6361C28.9756 12.5131 29.292 12.4106 29.6494 12.3285C30.0068 12.2406 30.3818 12.1791 30.7744 12.144L31.1611 13.5941L29.6143 14.3588ZM37.4102 18.9906C36.3086 18.9906 35.4619 18.7006 34.8701 18.1205C34.2783 17.5404 33.9824 16.7113 33.9824 15.6332C33.9824 14.5375 34.2725 13.6703 34.8525 13.0316C35.4385 12.3871 36.2266 12.0648 37.2168 12.0648C38.1074 12.0648 38.793 12.3373 39.2734 12.8822C39.7539 13.4213 39.9941 14.1977 39.9941 15.2113C39.9941 15.2992 39.9912 15.3959 39.9854 15.5014C39.9795 15.601 39.9707 15.6918 39.959 15.7738L38.2891 15.4486C38.2891 14.5639 38.1895 13.9281 37.9902 13.5414C37.791 13.1488 37.4658 12.9525 37.0146 12.9525C36.1416 12.9525 35.7051 13.6615 35.7051 15.0795C35.7051 16.9369 36.4551 17.8656 37.9551 17.8656C38.541 17.8656 39.1533 17.7455 39.792 17.5053L39.7217 18.4193C39.4404 18.601 39.0977 18.7416 38.6934 18.8412C38.2891 18.9408 37.8613 18.9906 37.4102 18.9906ZM34.668 15.7738V15.0004H39.8184L39.959 15.7738H34.668ZM43.1846 18.9906C42.3291 18.9906 41.6172 18.7973 41.0488 18.4106C40.9961 18.1703 40.958 17.9037 40.9346 17.6107C40.9111 17.3178 40.9082 17.016 40.9258 16.7055H41.6904L42.4375 18.2172L41.875 17.7074C42.3203 17.9945 42.8037 18.1381 43.3252 18.1381C44.0459 18.1381 44.4062 17.8627 44.4062 17.3119C44.4062 16.9018 44.1133 16.6 43.5273 16.4066L42.7539 16.1693C41.5879 15.8061 41.0049 15.141 41.0049 14.1742C41.0049 13.5356 41.2305 13.0287 41.6816 12.6537C42.1387 12.2729 42.748 12.0824 43.5098 12.0824C44.1953 12.0824 44.8164 12.2231 45.373 12.5043C45.4785 12.9672 45.5225 13.4828 45.5049 14.0512H44.7051L43.958 12.5395L44.8193 13.3481C44.3154 13.0727 43.832 12.935 43.3691 12.935C42.7539 12.935 42.4463 13.1869 42.4463 13.6908C42.4463 14.1127 42.7598 14.4232 43.3867 14.6225L44.1602 14.8598C44.7461 15.0473 45.1797 15.3051 45.4609 15.6332C45.7422 15.9613 45.8828 16.3598 45.8828 16.8285C45.8828 17.4906 45.6367 18.018 45.1445 18.4106C44.6582 18.7973 44.0049 18.9906 43.1846 18.9906ZM49.4336 18.9555C48.168 18.9555 47.5352 18.3373 47.5352 17.101V12.8471L47.6143 12.2231L48.001 10.5443H49.1348V16.8373C49.1348 17.2123 49.2051 17.4848 49.3457 17.6547C49.4863 17.8246 49.7148 17.9096 50.0312 17.9096C50.2949 17.9096 50.6318 17.8598 51.042 17.7602L50.9805 18.5951C50.5527 18.8354 50.0371 18.9555 49.4336 18.9555ZM46.4805 13.1459L46.542 12.4164C46.8643 12.3227 47.2217 12.2582 47.6143 12.2231H50.998L50.9277 13.1459H46.4805ZM52.6592 18.7973V13.1723L54.2588 13.6205V18.7973H52.6592ZM51.8154 18.85L51.8682 18.2611C52.0322 18.1791 52.1992 18.1117 52.3691 18.059C52.5391 18.0063 52.709 17.9594 52.8789 17.9184L52.6592 18.6215V17.3734H54.2588V18.6215L54.0742 17.9975L55.5156 18.2436L55.4717 18.85H51.8154ZM53.8809 14.4906L53.7051 14.1391C54.0215 13.4301 54.3584 12.9203 54.7158 12.6098C55.0791 12.2934 55.5039 12.1352 55.9902 12.1352C56.0664 12.1352 56.1455 12.1381 56.2275 12.144C56.3096 12.1498 56.3799 12.1645 56.4385 12.1879L56.333 13.5238C56.2217 13.5063 56.1016 13.4916 55.9727 13.4799C55.8496 13.4682 55.7441 13.4623 55.6562 13.4623C55.2812 13.4623 54.9531 13.5443 54.6719 13.7084C54.3965 13.8666 54.1328 14.1273 53.8809 14.4906ZM52.6592 14.3588V13.2338L52.9141 13.6908L51.7012 13.0756L51.7451 12.6361C52.0205 12.5131 52.3369 12.4106 52.6943 12.3285C53.0518 12.2406 53.4268 12.1791 53.8193 12.144L54.2061 13.5941L52.6592 14.3588ZM60.7363 17.9008C60.7363 17.4145 60.7422 16.9193 60.7539 16.4154C60.7656 15.9057 60.7715 15.4281 60.7715 14.9828V14.2182C60.7715 13.3861 60.3789 12.9701 59.5938 12.9701C59.084 12.9701 58.6035 13.14 58.1523 13.4799L57.4844 14.2182C57.4668 13.6791 57.4961 13.1898 57.5723 12.7504C58.3867 12.2992 59.2598 12.0736 60.1914 12.0736C61.6328 12.0736 62.3535 12.7299 62.3535 14.0424C62.3535 14.2065 62.3506 14.4555 62.3447 14.7895C62.3389 15.1176 62.333 15.475 62.3271 15.8617C62.3213 16.2426 62.3154 16.6 62.3096 16.934C62.3037 17.2621 62.3008 17.5141 62.3008 17.6898L60.7363 17.9008ZM57.4844 14.2182L57.5986 13.2074L59.0576 12.7065L58.3018 14.2182H57.4844ZM58.9434 18.9818C58.3691 18.9818 57.9121 18.8207 57.5723 18.4984C57.2383 18.1703 57.0713 17.7309 57.0713 17.1801C57.0713 16.0023 57.9326 15.2318 59.6553 14.8686L61.1406 14.5522L61.2549 15.3695L59.998 15.5277C59.541 15.5805 59.21 15.7065 59.0049 15.9057C58.7998 16.099 58.6973 16.392 58.6973 16.7846C58.6973 17.5404 59.0166 17.9184 59.6553 17.9184C60.1006 17.9184 60.6338 17.6986 61.2549 17.2592L61.4131 17.6283C60.6924 18.5307 59.8691 18.9818 58.9434 18.9818ZM61.1406 18.8852L60.7979 17.6986L62.3008 17.3031V18.3139L62.0635 17.892L63.127 18.1996L63.0742 18.7797C62.582 18.8617 61.9375 18.8969 61.1406 18.8852ZM66.502 18.9555C65.2363 18.9555 64.6035 18.3373 64.6035 17.101V12.8471L64.6826 12.2231L65.0693 10.5443H66.2031V16.8373C66.2031 17.2123 66.2734 17.4848 66.4141 17.6547C66.5547 17.8246 66.7832 17.9096 67.0996 17.9096C67.3633 17.9096 67.7002 17.8598 68.1104 17.7602L68.0488 18.5951C67.6211 18.8354 67.1055 18.9555 66.502 18.9555ZM63.5488 13.1459L63.6104 12.4164C63.9326 12.3227 64.29 12.2582 64.6826 12.2231H68.0664L67.9961 13.1459H63.5488ZM69.7627 18.7973V12.8471L71.3623 12.6801V18.7973H69.7627ZM69.7627 14.3588V13.2338L70.0176 13.6908L68.8047 13.0756L68.8486 12.6361C69.124 12.5131 69.4404 12.4106 69.7979 12.3285C70.1553 12.2406 70.5303 12.1791 70.9229 12.144H71.3623V13.5414L69.7627 14.3588ZM68.8662 18.85L68.9189 18.2611C69.0654 18.1908 69.2266 18.1293 69.4023 18.0766C69.584 18.018 69.7803 17.9652 69.9912 17.9184L69.7627 18.6303V17.3734H71.3623V18.6303L71.1689 17.9887L72.3027 18.2436L72.25 18.85H68.8662ZM70.4307 11.1332C70.1201 11.1332 69.874 11.0453 69.6924 10.8695C69.5107 10.6879 69.4199 10.4477 69.4199 10.1488C69.4199 9.85001 69.5107 9.6127 69.6924 9.43692C69.874 9.26114 70.1201 9.17325 70.4307 9.17325C70.7412 9.17325 70.9873 9.26114 71.1689 9.43692C71.3506 9.6127 71.4414 9.85001 71.4414 10.1488C71.4414 10.4477 71.3506 10.6879 71.1689 10.8695C70.9873 11.0453 70.7412 11.1332 70.4307 11.1332ZM76.4248 19.0082C75.417 19.0082 74.6143 18.6977 74.0166 18.0766C73.4248 17.4496 73.1289 16.6088 73.1289 15.5541C73.1289 14.4877 73.4277 13.641 74.0254 13.0141C74.6289 12.3813 75.4375 12.0648 76.4512 12.0648C77.459 12.0648 78.2588 12.3783 78.8506 13.0053C79.4424 13.6264 79.7383 14.4672 79.7383 15.5277C79.7383 16.5941 79.4395 17.4408 78.8418 18.0678C78.2441 18.6947 77.4385 19.0082 76.4248 19.0082ZM76.5742 18.1029C77.5059 18.1029 77.9717 17.3236 77.9717 15.765C77.9717 14.8686 77.8252 14.1801 77.5322 13.6996C77.2451 13.2133 76.832 12.9701 76.293 12.9701C75.3613 12.9701 74.8955 13.7494 74.8955 15.308C74.8955 16.2045 75.0391 16.8959 75.3262 17.3822C75.6191 17.8627 76.0352 18.1029 76.5742 18.1029ZM85.5918 18.7973V14.3764C85.5918 13.5736 85.2168 13.1723 84.4668 13.1723C83.8809 13.1723 83.2773 13.4184 82.6562 13.9106L82.4805 13.4184C82.8379 12.9848 83.2539 12.6537 83.7285 12.4252C84.2031 12.1908 84.7041 12.0736 85.2314 12.0736C85.8643 12.0736 86.3477 12.2436 86.6816 12.5834C87.0215 12.9174 87.1914 13.3979 87.1914 14.0248V18.7973H85.5918ZM81.5576 18.7973V12.9086L83.1572 13.2777V18.7973H81.5576ZM80.7139 18.85L80.7666 18.2611C80.9307 18.1791 81.0977 18.1117 81.2676 18.059C81.4375 18.0063 81.6074 17.9594 81.7773 17.9184L81.5576 18.6303V17.3734H83.1572V18.6303L82.9727 17.9887L84.0625 18.2436L84.0186 18.85H80.7139ZM84.8799 18.85L84.9238 18.226C85.0469 18.1615 85.1816 18.1059 85.3281 18.059C85.4746 18.0063 85.6328 17.9594 85.8027 17.9184L85.5918 18.6303V17.3734H87.1914V18.6303L86.998 17.9887L88.0703 18.2436L88.0176 18.85H84.8799ZM81.5576 14.3588V13.2338L81.8125 13.6908L80.5996 13.0756L80.6436 12.6361C80.9189 12.5131 81.2354 12.4106 81.5928 12.3285C81.9502 12.2406 82.3252 12.1791 82.7178 12.144L83.1045 13.5941L81.5576 14.3588Z" fill="#505050"/>
<g filter="url(#filter0_f_928_669)">
<line y1="-0.5" x2="145" y2="-0.5" transform="matrix(1 0.000174047 -0.000325489 1 3 29.25)" stroke="black" stroke-opacity="0.7"/>
</g>
<g filter="url(#filter1_f_928_669)">
<path d="M3 58.1344L148 58.1596M3.00012 87.3591L148 87.3844" stroke="black" stroke-opacity="0.7"/>
</g>
<path d="M8.41504 45.0432V36.5969H10.085V45.0432H8.41504ZM9.13574 41.5012V40.4729H12.8535L12.7832 41.5012H9.13574ZM8.7666 37.4318V36.4738H13.7764L13.6094 37.4318H8.7666ZM13.2227 39.0227L12.3525 37.0539L13.7764 36.4738C13.8643 36.8664 13.9229 37.2854 13.9521 37.7307C13.9814 38.1701 13.9814 38.6008 13.9521 39.0227H13.2227ZM7.4834 45.175L7.53613 44.551C7.8291 44.4279 8.19824 44.3137 8.64355 44.2082L8.41504 44.9377V43.6633H10.085V44.9377L9.85645 44.2785L11.3242 44.5334L11.2715 45.175H7.4834ZM11.0254 36.4738L10.9727 37.0979C10.6797 37.2209 10.3105 37.3352 9.86523 37.4406L10.085 36.7111V37.9855H8.41504V36.7111L8.61719 37.3703L7.44824 37.1154L7.50098 36.4738H11.0254ZM15.71 45.1223V39.1721L17.3096 39.0051V45.1223H15.71ZM15.71 40.6838V39.5588L15.9648 40.0158L14.752 39.4006L14.7959 38.9611C15.0713 38.8381 15.3877 38.7355 15.7451 38.6535C16.1025 38.5656 16.4775 38.5041 16.8701 38.4689H17.3096V39.8664L15.71 40.6838ZM14.8135 45.175L14.8662 44.5861C15.0127 44.5158 15.1738 44.4543 15.3496 44.4016C15.5312 44.343 15.7275 44.2902 15.9385 44.2434L15.71 44.9553V43.6984H17.3096V44.9553L17.1162 44.3137L18.25 44.5686L18.1973 45.175H14.8135ZM16.3779 37.4582C16.0674 37.4582 15.8213 37.3703 15.6396 37.1945C15.458 37.0129 15.3672 36.7727 15.3672 36.4738C15.3672 36.175 15.458 35.9377 15.6396 35.7619C15.8213 35.5861 16.0674 35.4982 16.3779 35.4982C16.6885 35.4982 16.9346 35.5861 17.1162 35.7619C17.2979 35.9377 17.3887 36.175 17.3887 36.4738C17.3887 36.7727 17.2979 37.0129 17.1162 37.1945C16.9346 37.3703 16.6885 37.4582 16.3779 37.4582ZM21.8184 43.0832C20.998 43.0832 20.3447 42.8723 19.8584 42.4504C19.3721 42.0285 19.1289 41.4631 19.1289 40.7541C19.1289 40.0334 19.3721 39.4621 19.8584 39.0402C20.3506 38.6125 21.0098 38.3986 21.8359 38.3986C22.293 38.3986 22.7236 38.5012 23.1279 38.7063C23.5381 38.9055 23.8721 39.1809 24.1299 39.5324C24.3877 39.8781 24.5166 40.2795 24.5166 40.7365C24.5166 41.4514 24.2734 42.0227 23.7871 42.4504C23.3008 42.8723 22.6445 43.0832 21.8184 43.0832ZM21.9238 42.2746C22.5918 42.2746 22.9258 41.8147 22.9258 40.8947C22.9258 39.7697 22.5244 39.2072 21.7217 39.2072C21.0537 39.2072 20.7197 39.6701 20.7197 40.5959C20.7197 41.135 20.8223 41.551 21.0273 41.8439C21.2383 42.1311 21.5371 42.2746 21.9238 42.2746ZM25.2285 39.5148L23.1631 39.4094L21.8359 38.3986C22.1113 38.3986 22.3281 38.4162 22.4863 38.4514C22.6504 38.4807 22.7998 38.5129 22.9346 38.548C23.0752 38.5832 23.248 38.6008 23.4531 38.6008C23.5996 38.6008 23.8398 38.592 24.1738 38.5744C24.5078 38.551 24.8916 38.5188 25.3252 38.4777L25.2285 39.5148ZM21.7041 48.2512C20.8311 48.2512 20.1338 48.09 19.6123 47.7678C19.0967 47.4514 18.8389 47.0236 18.8389 46.4846C18.8389 45.7932 19.3105 45.2512 20.2539 44.8586L20.7637 45.1398C20.3828 45.4445 20.1924 45.7961 20.1924 46.1945C20.1924 46.5813 20.3477 46.8772 20.6582 47.0822C20.9688 47.2932 21.4141 47.3986 21.9941 47.3986C22.6035 47.3986 23.0869 47.2873 23.4443 47.0647C23.8076 46.842 23.9893 46.5402 23.9893 46.1594C23.9893 45.7844 23.7402 45.5969 23.2422 45.5969H21.1943C20.6787 45.5969 20.2803 45.4797 19.999 45.2453C19.7236 45.0109 19.5859 44.677 19.5859 44.2434C19.5859 43.5285 20.002 42.9631 20.834 42.5471L21.4229 42.6438C20.9893 42.966 20.7725 43.3088 20.7725 43.6721C20.7725 44.0412 21.0215 44.2258 21.5195 44.2258H23.5674C24.1768 44.2258 24.6455 44.3547 24.9736 44.6125C25.3018 44.8645 25.4658 45.2307 25.4658 45.7111C25.4658 46.2033 25.3047 46.6398 24.9824 47.0207C24.6602 47.4016 24.2148 47.7004 23.6465 47.9172C23.084 48.1398 22.4365 48.2512 21.7041 48.2512ZM26.8193 45.1223V36.0871L28.4189 36.342V45.1223H26.8193ZM30.8799 45.1223V40.7014C30.8799 39.8986 30.502 39.4973 29.7461 39.4973C29.1484 39.4973 28.5391 39.7434 27.918 40.2355L27.7422 39.7697C28.4805 38.8557 29.4004 38.3986 30.502 38.3986C31.1406 38.3986 31.6299 38.5686 31.9697 38.9084C32.3096 39.2424 32.4795 39.7229 32.4795 40.3498V45.1223H30.8799ZM25.9756 45.175L26.0283 44.5861C26.1924 44.5041 26.3594 44.4367 26.5293 44.384C26.6992 44.3313 26.8691 44.2844 27.0391 44.2434L26.8193 44.9553V43.6984H28.4189V44.9553L28.2344 44.3137L29.3242 44.5686L29.2803 45.175H25.9756ZM30.168 45.175L30.2207 44.551C30.3438 44.4865 30.4756 44.4309 30.6162 44.384C30.7627 44.3313 30.9209 44.2844 31.0908 44.2434L30.8799 44.9553V43.6984H32.4795V44.9553L32.2861 44.3137L33.3584 44.5686L33.3145 45.175H30.168ZM26.8193 37.3V36.2014L27.0039 36.6145L25.8174 36.1223L25.8613 35.7004C26.4355 35.4953 27.0918 35.3781 27.8301 35.3488H28.4189V36.8605L26.8193 37.3ZM36.6719 45.2805C35.4062 45.2805 34.7734 44.6623 34.7734 43.426V39.1721L34.8525 38.548L35.2393 36.8693H36.373V43.1623C36.373 43.5373 36.4434 43.8098 36.584 43.9797C36.7246 44.1496 36.9531 44.2346 37.2695 44.2346C37.5332 44.2346 37.8701 44.1848 38.2803 44.0852L38.2188 44.9201C37.791 45.1604 37.2754 45.2805 36.6719 45.2805ZM33.7188 39.4709L33.7803 38.7414C34.1025 38.6477 34.46 38.5832 34.8525 38.548H38.2363L38.166 39.4709H33.7188ZM45.5312 44.2258C45.5312 43.7395 45.5371 43.2443 45.5488 42.7404C45.5605 42.2307 45.5664 41.7531 45.5664 41.3078V40.5432C45.5664 39.7111 45.1738 39.2951 44.3887 39.2951C43.8789 39.2951 43.3984 39.465 42.9473 39.8049L42.2793 40.5432C42.2617 40.0041 42.291 39.5148 42.3672 39.0754C43.1816 38.6242 44.0547 38.3986 44.9863 38.3986C46.4277 38.3986 47.1484 39.0549 47.1484 40.3674C47.1484 40.5314 47.1455 40.7805 47.1396 41.1145C47.1338 41.4426 47.1279 41.8 47.1221 42.1867C47.1162 42.5676 47.1104 42.925 47.1045 43.259C47.0986 43.5871 47.0957 43.8391 47.0957 44.0148L45.5312 44.2258ZM42.2793 40.5432L42.3936 39.5324L43.8525 39.0314L43.0967 40.5432H42.2793ZM43.7383 45.3068C43.1641 45.3068 42.707 45.1457 42.3672 44.8234C42.0332 44.4953 41.8662 44.0559 41.8662 43.5051C41.8662 42.3273 42.7275 41.5568 44.4502 41.1936L45.9355 40.8772L46.0498 41.6945L44.793 41.8527C44.3359 41.9055 44.0049 42.0314 43.7998 42.2307C43.5947 42.424 43.4922 42.717 43.4922 43.1096C43.4922 43.8654 43.8115 44.2434 44.4502 44.2434C44.8955 44.2434 45.4287 44.0236 46.0498 43.5842L46.208 43.9533C45.4873 44.8557 44.6641 45.3068 43.7383 45.3068ZM45.9355 45.2102L45.5928 44.0236L47.0957 43.6281V44.6389L46.8584 44.217L47.9219 44.5246L47.8691 45.1047C47.377 45.1867 46.7324 45.2219 45.9355 45.2102ZM51.543 43.0832C50.7227 43.0832 50.0693 42.8723 49.583 42.4504C49.0967 42.0285 48.8535 41.4631 48.8535 40.7541C48.8535 40.0334 49.0967 39.4621 49.583 39.0402C50.0752 38.6125 50.7344 38.3986 51.5605 38.3986C52.0176 38.3986 52.4482 38.5012 52.8525 38.7063C53.2627 38.9055 53.5967 39.1809 53.8545 39.5324C54.1123 39.8781 54.2412 40.2795 54.2412 40.7365C54.2412 41.4514 53.998 42.0227 53.5117 42.4504C53.0254 42.8723 52.3691 43.0832 51.543 43.0832ZM51.6484 42.2746C52.3164 42.2746 52.6504 41.8147 52.6504 40.8947C52.6504 39.7697 52.249 39.2072 51.4463 39.2072C50.7783 39.2072 50.4443 39.6701 50.4443 40.5959C50.4443 41.135 50.5469 41.551 50.752 41.8439C50.9629 42.1311 51.2617 42.2746 51.6484 42.2746ZM54.9531 39.5148L52.8877 39.4094L51.5605 38.3986C51.8359 38.3986 52.0527 38.4162 52.2109 38.4514C52.375 38.4807 52.5244 38.5129 52.6592 38.548C52.7998 38.5832 52.9727 38.6008 53.1777 38.6008C53.3242 38.6008 53.5645 38.592 53.8984 38.5744C54.2324 38.551 54.6162 38.5188 55.0498 38.4777L54.9531 39.5148ZM51.4287 48.2512C50.5557 48.2512 49.8584 48.09 49.3369 47.7678C48.8213 47.4514 48.5635 47.0236 48.5635 46.4846C48.5635 45.7932 49.0352 45.2512 49.9785 44.8586L50.4883 45.1398C50.1074 45.4445 49.917 45.7961 49.917 46.1945C49.917 46.5813 50.0723 46.8772 50.3828 47.0822C50.6934 47.2932 51.1387 47.3986 51.7188 47.3986C52.3281 47.3986 52.8115 47.2873 53.1689 47.0647C53.5322 46.842 53.7139 46.5402 53.7139 46.1594C53.7139 45.7844 53.4648 45.5969 52.9668 45.5969H50.9189C50.4033 45.5969 50.0049 45.4797 49.7236 45.2453C49.4482 45.0109 49.3105 44.677 49.3105 44.2434C49.3105 43.5285 49.7266 42.9631 50.5586 42.5471L51.1475 42.6438C50.7139 42.966 50.4971 43.3088 50.4971 43.6721C50.4971 44.0412 50.7461 44.2258 51.2441 44.2258H53.292C53.9014 44.2258 54.3701 44.3547 54.6982 44.6125C55.0264 44.8645 55.1904 45.2307 55.1904 45.7111C55.1904 46.2033 55.0293 46.6398 54.707 47.0207C54.3848 47.4016 53.9395 47.7004 53.3711 47.9172C52.8086 48.1398 52.1611 48.2512 51.4287 48.2512ZM59.3828 44.2258C59.3828 43.7395 59.3887 43.2443 59.4004 42.7404C59.4121 42.2307 59.418 41.7531 59.418 41.3078V40.5432C59.418 39.7111 59.0254 39.2951 58.2402 39.2951C57.7305 39.2951 57.25 39.465 56.7988 39.8049L56.1309 40.5432C56.1133 40.0041 56.1426 39.5148 56.2188 39.0754C57.0332 38.6242 57.9062 38.3986 58.8379 38.3986C60.2793 38.3986 61 39.0549 61 40.3674C61 40.5314 60.9971 40.7805 60.9912 41.1145C60.9854 41.4426 60.9795 41.8 60.9736 42.1867C60.9678 42.5676 60.9619 42.925 60.9561 43.259C60.9502 43.5871 60.9473 43.8391 60.9473 44.0148L59.3828 44.2258ZM56.1309 40.5432L56.2451 39.5324L57.7041 39.0314L56.9482 40.5432H56.1309ZM57.5898 45.3068C57.0156 45.3068 56.5586 45.1457 56.2188 44.8234C55.8848 44.4953 55.7178 44.0559 55.7178 43.5051C55.7178 42.3273 56.5791 41.5568 58.3018 41.1936L59.7871 40.8772L59.9014 41.6945L58.6445 41.8527C58.1875 41.9055 57.8564 42.0314 57.6514 42.2307C57.4463 42.424 57.3438 42.717 57.3438 43.1096C57.3438 43.8654 57.6631 44.2434 58.3018 44.2434C58.7471 44.2434 59.2803 44.0236 59.9014 43.5842L60.0596 43.9533C59.3389 44.8557 58.5156 45.3068 57.5898 45.3068ZM59.7871 45.2102L59.4443 44.0236L60.9473 43.6281V44.6389L60.71 44.217L61.7734 44.5246L61.7207 45.1047C61.2285 45.1867 60.584 45.2219 59.7871 45.2102ZM63.5576 45.1223V39.1721L65.1572 39.0051V45.1223H63.5576ZM63.5576 40.6838V39.5588L63.8125 40.0158L62.5996 39.4006L62.6436 38.9611C62.9189 38.8381 63.2354 38.7355 63.5928 38.6535C63.9502 38.5656 64.3252 38.5041 64.7178 38.4689H65.1572V39.8664L63.5576 40.6838ZM62.6611 45.175L62.7139 44.5861C62.8604 44.5158 63.0215 44.4543 63.1973 44.4016C63.3789 44.343 63.5752 44.2902 63.7861 44.2434L63.5576 44.9553V43.6984H65.1572V44.9553L64.9639 44.3137L66.0977 44.5686L66.0449 45.175H62.6611ZM64.2256 37.4582C63.915 37.4582 63.6689 37.3703 63.4873 37.1945C63.3057 37.0129 63.2148 36.7727 63.2148 36.4738C63.2148 36.175 63.3057 35.9377 63.4873 35.7619C63.6689 35.5861 63.915 35.4982 64.2256 35.4982C64.5361 35.4982 64.7822 35.5861 64.9639 35.7619C65.1455 35.9377 65.2363 36.175 65.2363 36.4738C65.2363 36.7727 65.1455 37.0129 64.9639 37.1945C64.7822 37.3703 64.5361 37.4582 64.2256 37.4582ZM71.8281 45.1223V40.7014C71.8281 39.8986 71.4531 39.4973 70.7031 39.4973C70.1172 39.4973 69.5137 39.7434 68.8926 40.2355L68.7168 39.7434C69.0742 39.3098 69.4902 38.9787 69.9648 38.7502C70.4395 38.5158 70.9404 38.3986 71.4678 38.3986C72.1006 38.3986 72.584 38.5686 72.918 38.9084C73.2578 39.2424 73.4277 39.7229 73.4277 40.3498V45.1223H71.8281ZM67.7939 45.1223V39.2336L69.3936 39.6027V45.1223H67.7939ZM66.9502 45.175L67.0029 44.5861C67.167 44.5041 67.334 44.4367 67.5039 44.384C67.6738 44.3313 67.8438 44.2844 68.0137 44.2434L67.7939 44.9553V43.6984H69.3936V44.9553L69.209 44.3137L70.2988 44.5686L70.2549 45.175H66.9502ZM71.1162 45.175L71.1602 44.551C71.2832 44.4865 71.418 44.4309 71.5645 44.384C71.7109 44.3313 71.8691 44.2844 72.0391 44.2434L71.8281 44.9553V43.6984H73.4277V44.9553L73.2344 44.3137L74.3066 44.5686L74.2539 45.175H71.1162ZM67.7939 40.6838V39.5588L68.0488 40.0158L66.8359 39.4006L66.8799 38.9611C67.1553 38.8381 67.4717 38.7355 67.8291 38.6535C68.1865 38.5656 68.5615 38.5041 68.9541 38.4689L69.3408 39.9191L67.7939 40.6838ZM77.3916 45.3156C76.5361 45.3156 75.8242 45.1223 75.2559 44.7355C75.2031 44.4953 75.165 44.2287 75.1416 43.9357C75.1182 43.6428 75.1152 43.341 75.1328 43.0305H75.8975L76.6445 44.5422L76.082 44.0324C76.5273 44.3195 77.0107 44.4631 77.5322 44.4631C78.2529 44.4631 78.6133 44.1877 78.6133 43.6369C78.6133 43.2268 78.3203 42.925 77.7344 42.7316L76.9609 42.4943C75.7949 42.1311 75.2119 41.466 75.2119 40.4992C75.2119 39.8605 75.4375 39.3537 75.8887 38.9787C76.3457 38.5979 76.9551 38.4074 77.7168 38.4074C78.4023 38.4074 79.0234 38.548 79.5801 38.8293C79.6855 39.2922 79.7295 39.8078 79.7119 40.3762H78.9121L78.165 38.8645L79.0264 39.673C78.5225 39.3977 78.0391 39.26 77.5762 39.26C76.9609 39.26 76.6533 39.5119 76.6533 40.0158C76.6533 40.4377 76.9668 40.7482 77.5938 40.9475L78.3672 41.1848C78.9531 41.3723 79.3867 41.6301 79.668 41.9582C79.9492 42.2863 80.0898 42.6848 80.0898 43.1535C80.0898 43.8156 79.8438 44.343 79.3516 44.7355C78.8652 45.1223 78.2119 45.3156 77.3916 45.3156ZM83.6406 45.2805C82.375 45.2805 81.7422 44.6623 81.7422 43.426V39.1721L81.8213 38.548L82.208 36.8693H83.3418V43.1623C83.3418 43.5373 83.4121 43.8098 83.5527 43.9797C83.6934 44.1496 83.9219 44.2346 84.2383 44.2346C84.502 44.2346 84.8389 44.1848 85.249 44.0852L85.1875 44.9201C84.7598 45.1604 84.2441 45.2805 83.6406 45.2805ZM80.6875 39.4709L80.749 38.7414C81.0713 38.6477 81.4287 38.5832 81.8213 38.548H85.2051L85.1348 39.4709H80.6875ZM93.5898 45.3244C92.0898 45.3244 90.9385 44.9523 90.1357 44.2082C89.333 43.4641 88.9316 42.3977 88.9316 41.009C88.9316 40.0539 89.1162 39.2277 89.4854 38.5305C89.8604 37.8273 90.3906 37.2854 91.0762 36.9045C91.7617 36.5178 92.5703 36.3244 93.502 36.3244C93.9824 36.3244 94.4512 36.3742 94.9082 36.4738C95.3652 36.5734 95.7402 36.7082 96.0332 36.8781C96.1445 37.6105 96.1768 38.3313 96.1299 39.0402H95.4092L94.5391 37.0715L95.3477 37.7307C94.7207 37.4084 94.0527 37.2473 93.3438 37.2473C91.6738 37.2473 90.8389 38.3957 90.8389 40.6926C90.8389 43.1652 91.8057 44.4016 93.7393 44.4016C94.4717 44.4016 95.1396 44.2375 95.7432 43.9094L95.6992 44.4982L94.5039 44.507L95.6113 42.468H96.3672C96.3789 43.1887 96.2822 43.9533 96.0771 44.7619C95.7783 44.9377 95.4062 45.0754 94.9609 45.175C94.5156 45.2746 94.0586 45.3244 93.5898 45.3244ZM100.973 44.2258C100.973 43.7395 100.979 43.2443 100.99 42.7404C101.002 42.2307 101.008 41.7531 101.008 41.3078V40.5432C101.008 39.7111 100.615 39.2951 99.8301 39.2951C99.3203 39.2951 98.8398 39.465 98.3887 39.8049L97.7207 40.5432C97.7031 40.0041 97.7324 39.5148 97.8086 39.0754C98.623 38.6242 99.4961 38.3986 100.428 38.3986C101.869 38.3986 102.59 39.0549 102.59 40.3674C102.59 40.5314 102.587 40.7805 102.581 41.1145C102.575 41.4426 102.569 41.8 102.563 42.1867C102.558 42.5676 102.552 42.925 102.546 43.259C102.54 43.5871 102.537 43.8391 102.537 44.0148L100.973 44.2258ZM97.7207 40.5432L97.835 39.5324L99.2939 39.0314L98.5381 40.5432H97.7207ZM99.1797 45.3068C98.6055 45.3068 98.1484 45.1457 97.8086 44.8234C97.4746 44.4953 97.3076 44.0559 97.3076 43.5051C97.3076 42.3273 98.1689 41.5568 99.8916 41.1936L101.377 40.8772L101.491 41.6945L100.234 41.8527C99.7773 41.9055 99.4463 42.0314 99.2412 42.2307C99.0361 42.424 98.9336 42.717 98.9336 43.1096C98.9336 43.8654 99.2529 44.2434 99.8916 44.2434C100.337 44.2434 100.87 44.0236 101.491 43.5842L101.649 43.9533C100.929 44.8557 100.105 45.3068 99.1797 45.3068ZM101.377 45.2102L101.034 44.0236L102.537 43.6281V44.6389L102.3 44.217L103.363 44.5246L103.311 45.1047C102.818 45.1867 102.174 45.2219 101.377 45.2102ZM109.146 45.1223V40.7014C109.146 39.8986 108.771 39.4973 108.021 39.4973C107.436 39.4973 106.832 39.7434 106.211 40.2355L106.035 39.7434C106.393 39.3098 106.809 38.9787 107.283 38.7502C107.758 38.5158 108.259 38.3986 108.786 38.3986C109.419 38.3986 109.902 38.5686 110.236 38.9084C110.576 39.2424 110.746 39.7229 110.746 40.3498V45.1223H109.146ZM105.112 45.1223V39.2336L106.712 39.6027V45.1223H105.112ZM104.269 45.175L104.321 44.5861C104.485 44.5041 104.652 44.4367 104.822 44.384C104.992 44.3313 105.162 44.2844 105.332 44.2434L105.112 44.9553V43.6984H106.712V44.9553L106.527 44.3137L107.617 44.5686L107.573 45.175H104.269ZM108.435 45.175L108.479 44.551C108.602 44.4865 108.736 44.4309 108.883 44.384C109.029 44.3313 109.188 44.2844 109.357 44.2434L109.146 44.9553V43.6984H110.746V44.9553L110.553 44.3137L111.625 44.5686L111.572 45.175H108.435ZM105.112 40.6838V39.5588L105.367 40.0158L104.154 39.4006L104.198 38.9611C104.474 38.8381 104.79 38.7355 105.147 38.6535C105.505 38.5656 105.88 38.5041 106.272 38.4689L106.659 39.9191L105.112 40.6838ZM115.765 45.3156C114.698 45.3156 113.878 45.0285 113.304 44.4543C112.735 43.8801 112.451 43.0598 112.451 41.9934C112.451 40.8918 112.747 40.0158 113.339 39.3654C113.931 38.715 114.728 38.3898 115.729 38.3898C116.468 38.3898 117.127 38.5539 117.707 38.882C117.76 39.1223 117.798 39.3918 117.821 39.6906C117.845 39.9836 117.845 40.2854 117.821 40.5959H117.039L116.292 39.0842L117.021 39.717C116.799 39.5822 116.562 39.4768 116.31 39.4006C116.063 39.3244 115.838 39.2863 115.633 39.2863C115.182 39.2863 114.833 39.4855 114.587 39.884C114.341 40.2824 114.218 40.8596 114.218 41.6154C114.218 43.3322 114.918 44.1906 116.318 44.1906C116.881 44.1906 117.452 44.0822 118.032 43.8654L117.962 44.7795C117.382 45.1369 116.649 45.3156 115.765 45.3156ZM122.102 45.3156C121 45.3156 120.153 45.0256 119.562 44.4455C118.97 43.8654 118.674 43.0363 118.674 41.9582C118.674 40.8625 118.964 39.9953 119.544 39.3566C120.13 38.7121 120.918 38.3898 121.908 38.3898C122.799 38.3898 123.484 38.6623 123.965 39.2072C124.445 39.7463 124.686 40.5227 124.686 41.5363C124.686 41.6242 124.683 41.7209 124.677 41.8264C124.671 41.926 124.662 42.0168 124.65 42.0988L122.98 41.7736C122.98 40.8889 122.881 40.2531 122.682 39.8664C122.482 39.4738 122.157 39.2775 121.706 39.2775C120.833 39.2775 120.396 39.9865 120.396 41.4045C120.396 43.2619 121.146 44.1906 122.646 44.1906C123.232 44.1906 123.845 44.0705 124.483 43.8303L124.413 44.7443C124.132 44.926 123.789 45.0666 123.385 45.1662C122.98 45.2658 122.553 45.3156 122.102 45.3156ZM119.359 42.0988V41.3254H124.51L124.65 42.0988H119.359ZM126.487 45.1223V39.4973L128.087 39.9455V45.1223H126.487ZM125.644 45.175L125.696 44.5861C125.86 44.5041 126.027 44.4367 126.197 44.384C126.367 44.3313 126.537 44.2844 126.707 44.2434L126.487 44.9465V43.6984H128.087V44.9465L127.902 44.3225L129.344 44.5686L129.3 45.175H125.644ZM127.709 40.8156L127.533 40.4641C127.85 39.7551 128.187 39.2453 128.544 38.9348C128.907 38.6184 129.332 38.4602 129.818 38.4602C129.895 38.4602 129.974 38.4631 130.056 38.4689C130.138 38.4748 130.208 38.4895 130.267 38.5129L130.161 39.8488C130.05 39.8313 129.93 39.8166 129.801 39.8049C129.678 39.7932 129.572 39.7873 129.484 39.7873C129.109 39.7873 128.781 39.8693 128.5 40.0334C128.225 40.1916 127.961 40.4523 127.709 40.8156ZM126.487 40.6838V39.5588L126.742 40.0158L125.529 39.4006L125.573 38.9611C125.849 38.8381 126.165 38.7355 126.522 38.6535C126.88 38.5656 127.255 38.5041 127.647 38.4689L128.034 39.9191L126.487 40.6838Z" fill="#505050"/>
<path d="M11.6641 75.6641L8.91406 68.2656H10.4297L12.8359 74.9844L12.8125 75.6328C12.6354 75.6536 12.4479 75.6667 12.25 75.6719C12.0521 75.6771 11.8568 75.6745 11.6641 75.6641ZM7.32031 76L7.36719 75.4453C7.6224 75.3203 7.9349 75.2188 8.30469 75.1406L8.07031 75.7188L8.53125 68.625L8.6875 69.0625L7.59375 68.8359L7.64062 68.2656H9.54688L9.14062 75.7031L8.97656 75.2031L10.1016 75.4297L10.0625 76H7.32031ZM12.8125 75.6328L11.9453 75.4688L14.4609 68.2656H15.5547L12.8125 75.6328ZM14.4062 76L14.4453 75.4453C14.5964 75.3828 14.763 75.3281 14.9453 75.2812C15.1328 75.2292 15.3229 75.1849 15.5156 75.1484L15.3359 75.6641L14.9375 68.2656H17.2422L17.1953 68.8203C16.9089 68.9401 16.5625 69.0391 16.1562 69.1172L16.3359 68.6953L16.7969 75.6406L16.6094 75.2031L17.5938 75.4297L17.5469 76H14.4062ZM21.3906 76.125C20.4115 76.125 19.6589 75.8672 19.1328 75.3516C18.6068 74.8359 18.3438 74.099 18.3438 73.1406C18.3438 72.1667 18.6016 71.3958 19.1172 70.8281C19.638 70.2552 20.3385 69.9688 21.2188 69.9688C22.0104 69.9688 22.6198 70.2109 23.0469 70.6953C23.474 71.1745 23.6875 71.8646 23.6875 72.7656C23.6875 72.8438 23.6849 72.9297 23.6797 73.0234C23.6745 73.112 23.6667 73.1927 23.6562 73.2656L22.1719 72.9766C22.1719 72.1901 22.0833 71.625 21.9062 71.2812C21.7292 70.9323 21.4401 70.7578 21.0391 70.7578C20.263 70.7578 19.875 71.388 19.875 72.6484C19.875 74.2995 20.5417 75.125 21.875 75.125C22.3958 75.125 22.9401 75.0182 23.5078 74.8047L23.4453 75.6172C23.1953 75.7786 22.8906 75.9036 22.5312 75.9922C22.1719 76.0807 21.7917 76.125 21.3906 76.125ZM18.9531 73.2656V72.5781H23.5312L23.6562 73.2656H18.9531ZM27.7344 75.1562C27.7344 74.724 27.7396 74.2839 27.75 73.8359C27.7604 73.3828 27.7656 72.9583 27.7656 72.5625V71.8828C27.7656 71.1432 27.4167 70.7734 26.7188 70.7734C26.2656 70.7734 25.8385 70.9245 25.4375 71.2266L24.8438 71.8828C24.8281 71.4036 24.8542 70.9688 24.9219 70.5781C25.6458 70.1771 26.4219 69.9766 27.25 69.9766C28.5312 69.9766 29.1719 70.5599 29.1719 71.7266C29.1719 71.8724 29.1693 72.0938 29.1641 72.3906C29.1589 72.6823 29.1536 73 29.1484 73.3438C29.1432 73.6823 29.138 74 29.1328 74.2969C29.1276 74.5885 29.125 74.8125 29.125 74.9688L27.7344 75.1562ZM24.8438 71.8828L24.9453 70.9844L26.2422 70.5391L25.5703 71.8828H24.8438ZM26.1406 76.1172C25.6302 76.1172 25.224 75.974 24.9219 75.6875C24.625 75.3958 24.4766 75.0052 24.4766 74.5156C24.4766 73.4688 25.2422 72.7839 26.7734 72.4609L28.0938 72.1797L28.1953 72.9062L27.0781 73.0469C26.6719 73.0938 26.3776 73.2057 26.1953 73.3828C26.013 73.5547 25.9219 73.8151 25.9219 74.1641C25.9219 74.8359 26.2057 75.1719 26.7734 75.1719C27.1693 75.1719 27.6432 74.9766 28.1953 74.5859L28.3359 74.9141C27.6953 75.7161 26.9635 76.1172 26.1406 76.1172ZM28.0938 76.0312L27.7891 74.9766L29.125 74.625V75.5234L28.9141 75.1484L29.8594 75.4219L29.8125 75.9375C29.375 76.0104 28.8021 76.0417 28.0938 76.0312ZM31.4453 75.9531V67.9219L32.8672 68.1484V75.9531H31.4453ZM30.6016 76L30.6484 75.4766C30.7839 75.4193 30.9323 75.3672 31.0938 75.3203C31.2604 75.2682 31.4427 75.2188 31.6406 75.1719L31.4453 75.8047V74.6875H32.8672V75.8047L32.7031 75.2344L33.75 75.4609L33.7031 76H30.6016ZM31.4453 69V68.0234L31.6094 68.3906L30.5547 67.9531L30.5938 67.5781C31.1042 67.3958 31.6875 67.2917 32.3438 67.2656H32.8672V68.6094L31.4453 69ZM36.5234 76.125C35.763 76.125 35.1302 75.9531 34.625 75.6094C34.5781 75.3958 34.5443 75.1589 34.5234 74.8984C34.5026 74.638 34.5 74.3698 34.5156 74.0938H35.1953L35.8594 75.4375L35.3594 74.9844C35.7552 75.2396 36.1849 75.3672 36.6484 75.3672C37.2891 75.3672 37.6094 75.1224 37.6094 74.6328C37.6094 74.2682 37.349 74 36.8281 73.8281L36.1406 73.6172C35.1042 73.2943 34.5859 72.7031 34.5859 71.8438C34.5859 71.276 34.7865 70.8255 35.1875 70.4922C35.5938 70.1536 36.1354 69.9844 36.8125 69.9844C37.4219 69.9844 37.974 70.1094 38.4688 70.3594C38.5625 70.7708 38.6016 71.2292 38.5859 71.7344H37.875L37.2109 70.3906L37.9766 71.1094C37.5286 70.8646 37.099 70.7422 36.6875 70.7422C36.1406 70.7422 35.8672 70.9661 35.8672 71.4141C35.8672 71.7891 36.1458 72.0651 36.7031 72.2422L37.3906 72.4531C37.9115 72.6198 38.2969 72.849 38.5469 73.1406C38.7969 73.4323 38.9219 73.7865 38.9219 74.2031C38.9219 74.7917 38.7031 75.2604 38.2656 75.6094C37.8333 75.9531 37.2526 76.125 36.5234 76.125ZM43.1172 75.9531V70.1172C43.1172 69.5182 43.224 68.9948 43.4375 68.5469C43.6562 68.0938 43.9583 67.7448 44.3438 67.5C44.7292 67.25 45.1797 67.125 45.6953 67.125C46.0026 67.125 46.2604 67.1667 46.4688 67.25L46.375 68.2891C46.0677 68.2161 45.7839 68.1797 45.5234 68.1797C45.1536 68.1797 44.8932 68.2839 44.7422 68.4922C44.5911 68.7005 44.5156 69.0625 44.5156 69.5781V70.4531L44.5312 70.6094V75.9531H43.1172ZM42.1719 70.9297L42.2266 70.2812C42.513 70.1979 42.8307 70.1406 43.1797 70.1094H46.1094L46.0469 70.9297H42.1719ZM42.3672 76L42.4141 75.4766C42.5599 75.4036 42.7083 75.3438 42.8594 75.2969C43.0104 75.25 43.1615 75.2083 43.3125 75.1719L43.1172 75.7969V74.6875H44.5312V75.7969L44.3594 75.2422L45.7266 75.4609L45.6875 76H42.3672ZM49.5391 76.1406C48.6432 76.1406 47.9297 75.8646 47.3984 75.3125C46.8724 74.7552 46.6094 74.0078 46.6094 73.0703C46.6094 72.1224 46.875 71.3698 47.4062 70.8125C47.9427 70.25 48.6615 69.9688 49.5625 69.9688C50.4583 69.9688 51.1693 70.2474 51.6953 70.8047C52.2214 71.3568 52.4844 72.1042 52.4844 73.0469C52.4844 73.9948 52.2188 74.7474 51.6875 75.3047C51.1562 75.862 50.4401 76.1406 49.5391 76.1406ZM49.6719 75.3359C50.5 75.3359 50.9141 74.6432 50.9141 73.2578C50.9141 72.4609 50.7839 71.849 50.5234 71.4219C50.2682 70.9896 49.901 70.7734 49.4219 70.7734C48.5938 70.7734 48.1797 71.4661 48.1797 72.8516C48.1797 73.6484 48.3073 74.263 48.5625 74.6953C48.8229 75.1224 49.1927 75.3359 49.6719 75.3359ZM54.1016 75.9531V70.9531L55.5234 71.3516V75.9531H54.1016ZM53.3516 76L53.3984 75.4766C53.5443 75.4036 53.6927 75.3438 53.8438 75.2969C53.9948 75.25 54.1458 75.2083 54.2969 75.1719L54.1016 75.7969V74.6875H55.5234V75.7969L55.3594 75.2422L56.6406 75.4609L56.6016 76H53.3516ZM55.1875 72.125L55.0312 71.8125C55.3125 71.1823 55.612 70.7292 55.9297 70.4531C56.2526 70.1719 56.6302 70.0312 57.0625 70.0312C57.1302 70.0312 57.2005 70.0339 57.2734 70.0391C57.3464 70.0443 57.4089 70.0573 57.4609 70.0781L57.3672 71.2656C57.2682 71.25 57.1615 71.237 57.0469 71.2266C56.9375 71.2161 56.8438 71.2109 56.7656 71.2109C56.4323 71.2109 56.1406 71.2839 55.8906 71.4297C55.6458 71.5703 55.4115 71.8021 55.1875 72.125ZM54.1016 72.0078V71.0078L54.3281 71.4141L53.25 70.8672L53.2891 70.4766C53.5339 70.3672 53.8151 70.276 54.1328 70.2031C54.4505 70.125 54.7839 70.0703 55.1328 70.0391L55.4766 71.3281L54.1016 72.0078ZM64.7422 75.6641L61.9922 68.2656H63.5078L65.9141 74.9844L65.8906 75.6328C65.7135 75.6536 65.526 75.6667 65.3281 75.6719C65.1302 75.6771 64.9349 75.6745 64.7422 75.6641ZM60.3984 76L60.4453 75.4453C60.7005 75.3203 61.013 75.2188 61.3828 75.1406L61.1484 75.7188L61.6094 68.625L61.7656 69.0625L60.6719 68.8359L60.7188 68.2656H62.625L62.2188 75.7031L62.0547 75.2031L63.1797 75.4297L63.1406 76H60.3984ZM65.8906 75.6328L65.0234 75.4688L67.5391 68.2656H68.6328L65.8906 75.6328ZM67.4844 76L67.5234 75.4453C67.6745 75.3828 67.8411 75.3281 68.0234 75.2812C68.2109 75.2292 68.401 75.1849 68.5938 75.1484L68.4141 75.6641L68.0156 68.2656H70.3203L70.2734 68.8203C69.987 68.9401 69.6406 69.0391 69.2344 69.1172L69.4141 68.6953L69.875 75.6406L69.6875 75.2031L70.6719 75.4297L70.625 76H67.4844ZM74.6406 75.1562C74.6406 74.724 74.6458 74.2839 74.6562 73.8359C74.6667 73.3828 74.6719 72.9583 74.6719 72.5625V71.8828C74.6719 71.1432 74.3229 70.7734 73.625 70.7734C73.1719 70.7734 72.7448 70.9245 72.3438 71.2266L71.75 71.8828C71.7344 71.4036 71.7604 70.9688 71.8281 70.5781C72.5521 70.1771 73.3281 69.9766 74.1562 69.9766C75.4375 69.9766 76.0781 70.5599 76.0781 71.7266C76.0781 71.8724 76.0755 72.0938 76.0703 72.3906C76.0651 72.6823 76.0599 73 76.0547 73.3438C76.0495 73.6823 76.0443 74 76.0391 74.2969C76.0339 74.5885 76.0312 74.8125 76.0312 74.9688L74.6406 75.1562ZM71.75 71.8828L71.8516 70.9844L73.1484 70.5391L72.4766 71.8828H71.75ZM73.0469 76.1172C72.5365 76.1172 72.1302 75.974 71.8281 75.6875C71.5312 75.3958 71.3828 75.0052 71.3828 74.5156C71.3828 73.4688 72.1484 72.7839 73.6797 72.4609L75 72.1797L75.1016 72.9062L73.9844 73.0469C73.5781 73.0938 73.2839 73.2057 73.1016 73.3828C72.9193 73.5547 72.8281 73.8151 72.8281 74.1641C72.8281 74.8359 73.112 75.1719 73.6797 75.1719C74.0755 75.1719 74.5495 74.9766 75.1016 74.5859L75.2422 74.9141C74.6016 75.7161 73.8698 76.1172 73.0469 76.1172ZM75 76.0312L74.6953 74.9766L76.0312 74.625V75.5234L75.8203 75.1484L76.7656 75.4219L76.7188 75.9375C76.2812 76.0104 75.7083 76.0417 75 76.0312ZM78.3516 75.9531V67.9219L79.7734 68.1484V75.9531H78.3516ZM77.5078 76L77.5547 75.4766C77.6901 75.4193 77.8385 75.3672 78 75.3203C78.1667 75.2682 78.349 75.2188 78.5469 75.1719L78.3516 75.8047V74.6875H79.7734V75.8047L79.6094 75.2344L80.6562 75.4609L80.6094 76H77.5078ZM78.3516 69V68.0234L78.5156 68.3906L77.4609 67.9531L77.5 67.5781C78.0104 67.3958 78.5938 67.2917 79.25 67.2656H79.7734V68.6094L78.3516 69ZM85.7812 75.9531V72.0234C85.7812 71.3099 85.4479 70.9531 84.7812 70.9531C84.2604 70.9531 83.724 71.1719 83.1719 71.6094L83.0156 71.1719C83.3333 70.7865 83.7031 70.4922 84.125 70.2891C84.5469 70.0807 84.9922 69.9766 85.4609 69.9766C86.0234 69.9766 86.4531 70.1276 86.75 70.4297C87.0521 70.7266 87.2031 71.1536 87.2031 71.7109V75.9531H85.7812ZM82.1953 75.9531V70.7188L83.6172 71.0469V75.9531H82.1953ZM81.4453 76L81.4922 75.4766C81.638 75.4036 81.7865 75.3438 81.9375 75.2969C82.0885 75.25 82.2396 75.2083 82.3906 75.1719L82.1953 75.8047V74.6875H83.6172V75.8047L83.4531 75.2344L84.4219 75.4609L84.3828 76H81.4453ZM85.1484 76L85.1875 75.4453C85.2969 75.388 85.4167 75.3385 85.5469 75.2969C85.6771 75.25 85.8177 75.2083 85.9688 75.1719L85.7812 75.8047V74.6875H87.2031V75.8047L87.0312 75.2344L87.9844 75.4609L87.9375 76H85.1484ZM82.1953 72.0078V71.0078L82.4219 71.4141L81.3438 70.8672L81.3828 70.4766C81.6276 70.3672 81.9089 70.276 82.2266 70.2031C82.5443 70.125 82.8776 70.0703 83.2266 70.0391L83.5703 71.3281L82.1953 72.0078ZM90.8672 76.1328C89.7057 76.1328 89.125 75.5234 89.125 74.3047V70.7656L90.5469 70.8516V74.0547C90.5469 74.4453 90.6172 74.7292 90.7578 74.9062C90.9036 75.0833 91.1328 75.1719 91.4453 75.1719C91.9974 75.1719 92.5625 74.9401 93.1406 74.4766L93.2891 74.8984C92.5911 75.7214 91.7839 76.1328 90.8672 76.1328ZM89.125 71.7734V70.9062L89.3516 71.2344L88.4219 70.7578L88.4609 70.3047C88.9349 70.1432 89.5 70.0547 90.1562 70.0391H90.5469V71.3125L89.125 71.7734ZM94.0781 75.5391L92.6562 75.2266V70.7812L94.0781 70.8594V75.5391ZM92.6562 71.7734V70.9062L92.8828 71.2422L91.8828 70.7344L91.9141 70.3281C92.1693 70.2396 92.4479 70.1719 92.75 70.125C93.0573 70.0729 93.3698 70.0443 93.6875 70.0391H94.0781V71.2969L92.6562 71.7734ZM93.0469 76.0312L92.75 74.9766L94.0781 74.625V75.5234L93.875 75.1484L94.8125 75.4219L94.7734 75.9375C94.3307 76.0104 93.7552 76.0417 93.0469 76.0312ZM97.8906 76.0938C96.7656 76.0938 96.2031 75.5443 96.2031 74.4453V70.6641L96.2734 70.1094L96.6172 68.6172H97.625V74.2109C97.625 74.5443 97.6875 74.7865 97.8125 74.9375C97.9375 75.0885 98.1406 75.1641 98.4219 75.1641C98.6562 75.1641 98.9557 75.1198 99.3203 75.0312L99.2656 75.7734C98.8854 75.987 98.4271 76.0938 97.8906 76.0938ZM95.2656 70.9297L95.3203 70.2812C95.6068 70.1979 95.9245 70.1406 96.2734 70.1094H99.2812L99.2188 70.9297H95.2656ZM100.758 75.9531V70.9531L102.18 71.3516V75.9531H100.758ZM100.008 76L100.055 75.4766C100.201 75.4036 100.349 75.3438 100.5 75.2969C100.651 75.25 100.802 75.2083 100.953 75.1719L100.758 75.7969V74.6875H102.18V75.7969L102.016 75.2422L103.297 75.4609L103.258 76H100.008ZM101.844 72.125L101.688 71.8125C101.969 71.1823 102.268 70.7292 102.586 70.4531C102.909 70.1719 103.286 70.0312 103.719 70.0312C103.786 70.0312 103.857 70.0339 103.93 70.0391C104.003 70.0443 104.065 70.0573 104.117 70.0781L104.023 71.2656C103.924 71.25 103.818 71.237 103.703 71.2266C103.594 71.2161 103.5 71.2109 103.422 71.2109C103.089 71.2109 102.797 71.2839 102.547 71.4297C102.302 71.5703 102.068 71.8021 101.844 72.125ZM100.758 72.0078V71.0078L100.984 71.4141L99.9062 70.8672L99.9453 70.4766C100.19 70.3672 100.471 70.276 100.789 70.2031C101.107 70.125 101.44 70.0703 101.789 70.0391L102.133 71.3281L100.758 72.0078ZM105.523 75.9531V70.6641L106.945 70.5156V75.9531H105.523ZM105.523 72.0078V71.0078L105.75 71.4141L104.672 70.8672L104.711 70.4766C104.956 70.3672 105.237 70.276 105.555 70.2031C105.872 70.125 106.206 70.0703 106.555 70.0391H106.945V71.2812L105.523 72.0078ZM104.727 76L104.773 75.4766C104.904 75.4141 105.047 75.3594 105.203 75.3125C105.365 75.2604 105.539 75.2135 105.727 75.1719L105.523 75.8047V74.6875H106.945V75.8047L106.773 75.2344L107.781 75.4609L107.734 76H104.727ZM106.117 69.1406C105.841 69.1406 105.622 69.0625 105.461 68.9062C105.299 68.7448 105.219 68.5312 105.219 68.2656C105.219 68 105.299 67.7891 105.461 67.6328C105.622 67.4766 105.841 67.3984 106.117 67.3984C106.393 67.3984 106.612 67.4766 106.773 67.6328C106.935 67.7891 107.016 68 107.016 68.2656C107.016 68.5312 106.935 68.7448 106.773 68.9062C106.612 69.0625 106.393 69.1406 106.117 69.1406ZM110.812 76.0938C109.688 76.0938 109.125 75.5443 109.125 74.4453V70.6641L109.195 70.1094L109.539 68.6172H110.547V74.2109C110.547 74.5443 110.609 74.7865 110.734 74.9375C110.859 75.0885 111.062 75.1641 111.344 75.1641C111.578 75.1641 111.878 75.1198 112.242 75.0312L112.188 75.7734C111.807 75.987 111.349 76.0938 110.812 76.0938ZM108.188 70.9297L108.242 70.2812C108.529 70.1979 108.846 70.1406 109.195 70.1094H112.203L112.141 70.9297H108.188ZM113.711 75.9531V70.6641L115.133 70.5156V75.9531H113.711ZM113.711 72.0078V71.0078L113.938 71.4141L112.859 70.8672L112.898 70.4766C113.143 70.3672 113.424 70.276 113.742 70.2031C114.06 70.125 114.393 70.0703 114.742 70.0391H115.133V71.2812L113.711 72.0078ZM112.914 76L112.961 75.4766C113.091 75.4141 113.234 75.3594 113.391 75.3125C113.552 75.2604 113.727 75.2135 113.914 75.1719L113.711 75.8047V74.6875H115.133V75.8047L114.961 75.2344L115.969 75.4609L115.922 76H112.914ZM114.305 69.1406C114.029 69.1406 113.81 69.0625 113.648 68.9062C113.487 68.7448 113.406 68.5312 113.406 68.2656C113.406 68 113.487 67.7891 113.648 67.6328C113.81 67.4766 114.029 67.3984 114.305 67.3984C114.581 67.3984 114.799 67.4766 114.961 67.6328C115.122 67.7891 115.203 68 115.203 68.2656C115.203 68.5312 115.122 68.7448 114.961 68.9062C114.799 69.0625 114.581 69.1406 114.305 69.1406ZM119.633 76.1406C118.737 76.1406 118.023 75.8646 117.492 75.3125C116.966 74.7552 116.703 74.0078 116.703 73.0703C116.703 72.1224 116.969 71.3698 117.5 70.8125C118.036 70.25 118.755 69.9688 119.656 69.9688C120.552 69.9688 121.263 70.2474 121.789 70.8047C122.315 71.3568 122.578 72.1042 122.578 73.0469C122.578 73.9948 122.312 74.7474 121.781 75.3047C121.25 75.862 120.534 76.1406 119.633 76.1406ZM119.766 75.3359C120.594 75.3359 121.008 74.6432 121.008 73.2578C121.008 72.4609 120.878 71.849 120.617 71.4219C120.362 70.9896 119.995 70.7734 119.516 70.7734C118.688 70.7734 118.273 71.4661 118.273 72.8516C118.273 73.6484 118.401 74.263 118.656 74.6953C118.917 75.1224 119.286 75.3359 119.766 75.3359ZM127.781 75.9531V72.0234C127.781 71.3099 127.448 70.9531 126.781 70.9531C126.26 70.9531 125.724 71.1719 125.172 71.6094L125.016 71.1719C125.333 70.7865 125.703 70.4922 126.125 70.2891C126.547 70.0807 126.992 69.9766 127.461 69.9766C128.023 69.9766 128.453 70.1276 128.75 70.4297C129.052 70.7266 129.203 71.1536 129.203 71.7109V75.9531H127.781ZM124.195 75.9531V70.7188L125.617 71.0469V75.9531H124.195ZM123.445 76L123.492 75.4766C123.638 75.4036 123.786 75.3438 123.938 75.2969C124.089 75.25 124.24 75.2083 124.391 75.1719L124.195 75.8047V74.6875H125.617V75.8047L125.453 75.2344L126.422 75.4609L126.383 76H123.445ZM127.148 76L127.188 75.4453C127.297 75.388 127.417 75.3385 127.547 75.2969C127.677 75.25 127.818 75.2083 127.969 75.1719L127.781 75.8047V74.6875H129.203V75.8047L129.031 75.2344L129.984 75.4609L129.938 76H127.148ZM124.195 72.0078V71.0078L124.422 71.4141L123.344 70.8672L123.383 70.4766C123.628 70.3672 123.909 70.276 124.227 70.2031C124.544 70.125 124.878 70.0703 125.227 70.0391L125.57 71.3281L124.195 72.0078ZM133.766 76.125C132.786 76.125 132.034 75.8672 131.508 75.3516C130.982 74.8359 130.719 74.099 130.719 73.1406C130.719 72.1667 130.977 71.3958 131.492 70.8281C132.013 70.2552 132.714 69.9688 133.594 69.9688C134.385 69.9688 134.995 70.2109 135.422 70.6953C135.849 71.1745 136.062 71.8646 136.062 72.7656C136.062 72.8438 136.06 72.9297 136.055 73.0234C136.049 73.112 136.042 73.1927 136.031 73.2656L134.547 72.9766C134.547 72.1901 134.458 71.625 134.281 71.2812C134.104 70.9323 133.815 70.7578 133.414 70.7578C132.638 70.7578 132.25 71.388 132.25 72.6484C132.25 74.2995 132.917 75.125 134.25 75.125C134.771 75.125 135.315 75.0182 135.883 74.8047L135.82 75.6172C135.57 75.7786 135.266 75.9036 134.906 75.9922C134.547 76.0807 134.167 76.125 133.766 76.125ZM131.328 73.2656V72.5781H135.906L136.031 73.2656H131.328ZM139.219 76.1406C138.495 76.1406 137.917 75.8802 137.484 75.3594C137.057 74.8385 136.844 74.1354 136.844 73.25C136.844 72.2448 137.12 71.4479 137.672 70.8594C138.224 70.2656 138.964 69.9688 139.891 69.9688C140.693 69.9688 141.266 70.2135 141.609 70.7031L141.359 71.3594C140.896 70.9688 140.406 70.7734 139.891 70.7734C139.406 70.7734 139.034 70.9635 138.773 71.3438C138.513 71.724 138.383 72.2682 138.383 72.9766C138.383 73.6797 138.51 74.2214 138.766 74.6016C139.021 74.9766 139.388 75.1641 139.867 75.1641C140.326 75.1641 140.802 74.9688 141.297 74.5781L141.445 74.9609C140.784 75.7474 140.042 76.1406 139.219 76.1406ZM142.258 75.5469L140.836 75.2266V68.0547H142.258V75.5469ZM140.836 69V68.0234L141 68.3906L139.859 67.9453L139.898 67.5938C140.451 67.401 141.06 67.2917 141.727 67.2656H142.258V68.6094L140.836 69ZM141.227 76.0312L140.93 74.9766L142.258 74.625V75.5234L142.055 75.1484L142.992 75.4219L142.953 75.9375C142.51 76.0104 141.935 76.0417 141.227 76.0312Z" fill="#505050"/>
<path d="M9.03125 105V104.148H10.9219C11.6042 104.148 12.1276 103.888 12.4922 103.367C12.8568 102.846 13.0391 102.102 13.0391 101.133C13.0391 99.1224 12.1953 98.1172 10.5078 98.1172H9.03125V97.2656H10.5781C11.9167 97.2656 12.9427 97.5885 13.6562 98.2344C14.375 98.8802 14.7344 99.8021 14.7344 101C14.7344 101.812 14.5703 102.518 14.2422 103.117C13.9193 103.716 13.4609 104.18 12.8672 104.508C12.2786 104.836 11.5781 105 10.7656 105H9.03125ZM8.25781 104.883V97.375H9.74219V104.883H8.25781ZM7.42969 105L7.47656 104.445C7.73698 104.336 8.0651 104.234 8.46094 104.141L8.25781 104.789V103.656H9.74219V104.789L9.57031 104.203L10.6094 104.43L10.5625 105H7.42969ZM10.5781 97.2656L10.5312 97.8203C10.2708 97.9297 9.94271 98.0312 9.54688 98.125L9.74219 97.4766V98.6094H8.25781V97.4766L8.4375 98.0625L7.39844 97.8359L7.44531 97.2656H10.5781ZM18.5234 105.141C17.6276 105.141 16.9141 104.865 16.3828 104.312C15.8568 103.755 15.5938 103.008 15.5938 102.07C15.5938 101.122 15.8594 100.37 16.3906 99.8125C16.9271 99.25 17.6458 98.9688 18.5469 98.9688C19.4427 98.9688 20.1536 99.2474 20.6797 99.8047C21.2057 100.357 21.4688 101.104 21.4688 102.047C21.4688 102.995 21.2031 103.747 20.6719 104.305C20.1406 104.862 19.4245 105.141 18.5234 105.141ZM18.6562 104.336C19.4844 104.336 19.8984 103.643 19.8984 102.258C19.8984 101.461 19.7682 100.849 19.5078 100.422C19.2526 99.9896 18.8854 99.7734 18.4062 99.7734C17.5781 99.7734 17.1641 100.466 17.1641 101.852C17.1641 102.648 17.2917 103.263 17.5469 103.695C17.8073 104.122 18.1771 104.336 18.6562 104.336ZM25.2578 105.125C24.3099 105.125 23.5807 104.87 23.0703 104.359C22.5651 103.849 22.3125 103.12 22.3125 102.172C22.3125 101.193 22.5755 100.414 23.1016 99.8359C23.6276 99.2578 24.3359 98.9688 25.2266 98.9688C25.8828 98.9688 26.4688 99.1146 26.9844 99.4062C27.0312 99.6198 27.0651 99.8594 27.0859 100.125C27.1068 100.385 27.1068 100.654 27.0859 100.93H26.3906L25.7266 99.5859L26.375 100.148C26.1771 100.029 25.9661 99.9349 25.7422 99.8672C25.5234 99.7995 25.3229 99.7656 25.1406 99.7656C24.7396 99.7656 24.4297 99.9427 24.2109 100.297C23.9922 100.651 23.8828 101.164 23.8828 101.836C23.8828 103.362 24.5052 104.125 25.75 104.125C26.25 104.125 26.7578 104.029 27.2734 103.836L27.2109 104.648C26.6953 104.966 26.0443 105.125 25.2578 105.125ZM30.2969 105.094C29.1719 105.094 28.6094 104.544 28.6094 103.445V99.6641L28.6797 99.1094L29.0234 97.6172H30.0312V103.211C30.0312 103.544 30.0938 103.786 30.2188 103.938C30.3438 104.089 30.5469 104.164 30.8281 104.164C31.0625 104.164 31.362 104.12 31.7266 104.031L31.6719 104.773C31.2917 104.987 30.8333 105.094 30.2969 105.094ZM27.6719 99.9297L27.7266 99.2812C28.013 99.1979 28.3307 99.1406 28.6797 99.1094H31.6875L31.625 99.9297H27.6719ZM35.1641 105.141C34.2682 105.141 33.5547 104.865 33.0234 104.312C32.4974 103.755 32.2344 103.008 32.2344 102.07C32.2344 101.122 32.5 100.37 33.0312 99.8125C33.5677 99.25 34.2865 98.9688 35.1875 98.9688C36.0833 98.9688 36.7943 99.2474 37.3203 99.8047C37.8464 100.357 38.1094 101.104 38.1094 102.047C38.1094 102.995 37.8438 103.747 37.3125 104.305C36.7812 104.862 36.0651 105.141 35.1641 105.141ZM35.2969 104.336C36.125 104.336 36.5391 103.643 36.5391 102.258C36.5391 101.461 36.4089 100.849 36.1484 100.422C35.8932 99.9896 35.526 99.7734 35.0469 99.7734C34.2188 99.7734 33.8047 100.466 33.8047 101.852C33.8047 102.648 33.9323 103.263 34.1875 103.695C34.4479 104.122 34.8177 104.336 35.2969 104.336ZM39.7266 104.953V99.9531L41.1484 100.352V104.953H39.7266ZM38.9766 105L39.0234 104.477C39.1693 104.404 39.3177 104.344 39.4688 104.297C39.6198 104.25 39.7708 104.208 39.9219 104.172L39.7266 104.797V103.688H41.1484V104.797L40.9844 104.242L42.2656 104.461L42.2266 105H38.9766ZM40.8125 101.125L40.6562 100.812C40.9375 100.182 41.237 99.7292 41.5547 99.4531C41.8776 99.1719 42.2552 99.0312 42.6875 99.0312C42.7552 99.0312 42.8255 99.0339 42.8984 99.0391C42.9714 99.0443 43.0339 99.0573 43.0859 99.0781L42.9922 100.266C42.8932 100.25 42.7865 100.237 42.6719 100.227C42.5625 100.216 42.4688 100.211 42.3906 100.211C42.0573 100.211 41.7656 100.284 41.5156 100.43C41.2708 100.57 41.0365 100.802 40.8125 101.125ZM39.7266 101.008V100.008L39.9531 100.414L38.875 99.8672L38.9141 99.4766C39.1589 99.3672 39.4401 99.276 39.7578 99.2031C40.0755 99.125 40.4089 99.0703 40.7578 99.0391L41.1016 100.328L39.7266 101.008ZM45.6953 105.125C44.9349 105.125 44.3021 104.953 43.7969 104.609C43.75 104.396 43.7161 104.159 43.6953 103.898C43.6745 103.638 43.6719 103.37 43.6875 103.094H44.3672L45.0312 104.438L44.5312 103.984C44.9271 104.24 45.3568 104.367 45.8203 104.367C46.4609 104.367 46.7812 104.122 46.7812 103.633C46.7812 103.268 46.5208 103 46 102.828L45.3125 102.617C44.276 102.294 43.7578 101.703 43.7578 100.844C43.7578 100.276 43.9583 99.8255 44.3594 99.4922C44.7656 99.1536 45.3073 98.9844 45.9844 98.9844C46.5938 98.9844 47.1458 99.1094 47.6406 99.3594C47.7344 99.7708 47.7734 100.229 47.7578 100.734H47.0469L46.3828 99.3906L47.1484 100.109C46.7005 99.8646 46.2708 99.7422 45.8594 99.7422C45.3125 99.7422 45.0391 99.9661 45.0391 100.414C45.0391 100.789 45.3177 101.065 45.875 101.242L46.5625 101.453C47.0833 101.62 47.4688 101.849 47.7188 102.141C47.9688 102.432 48.0938 102.786 48.0938 103.203C48.0938 103.792 47.875 104.26 47.4375 104.609C47.0052 104.953 46.4245 105.125 45.6953 105.125ZM53.2422 105.047L51.5625 99.6797L51.9531 99.9062L51 99.6797L51.0469 99.1094H53.8359L53.7891 99.6797C53.6849 99.7318 53.5573 99.7812 53.4062 99.8281C53.2552 99.875 53.1042 99.9167 52.9531 99.9531L53.0703 99.7188L54.3594 104.398L54.5469 105.008C54.4427 105.023 54.3099 105.036 54.1484 105.047C53.9922 105.057 53.8333 105.062 53.6719 105.062C53.5104 105.062 53.3672 105.057 53.2422 105.047ZM53.7422 104.891L55.3203 99.2812L56.2109 99.2891L54.5469 105.008L53.7422 104.891ZM56.7891 105.047L55.3906 100.031L55.3203 99.2812C55.4818 99.2552 55.6693 99.2396 55.8828 99.2344C56.1016 99.224 56.3021 99.224 56.4844 99.2344L57.8906 104.398L58.0938 105.008C57.9896 105.023 57.8594 105.036 57.7031 105.047C57.5469 105.057 57.3854 105.062 57.2188 105.062C57.0573 105.062 56.9141 105.057 56.7891 105.047ZM57.2891 104.891L58.7656 99.6875L58.8516 99.9062L57.9844 99.6797L58.0234 99.1094H60.2578L60.2188 99.6641C60.099 99.7318 59.9635 99.7917 59.8125 99.8438C59.6667 99.8906 59.5182 99.9323 59.3672 99.9688L59.75 99.6953L58.0938 105.008L57.2891 104.891ZM61.6016 104.953V99.6641L63.0234 99.5156V104.953H61.6016ZM61.6016 101.008V100.008L61.8281 100.414L60.75 99.8672L60.7891 99.4766C61.0339 99.3672 61.3151 99.276 61.6328 99.2031C61.9505 99.125 62.2839 99.0703 62.6328 99.0391H63.0234V100.281L61.6016 101.008ZM60.8047 105L60.8516 104.477C60.9818 104.414 61.125 104.359 61.2812 104.312C61.4427 104.26 61.6172 104.214 61.8047 104.172L61.6016 104.805V103.688H63.0234V104.805L62.8516 104.234L63.8594 104.461L63.8125 105H60.8047ZM62.1953 98.1406C61.9193 98.1406 61.7005 98.0625 61.5391 97.9062C61.3776 97.7448 61.2969 97.5312 61.2969 97.2656C61.2969 97 61.3776 96.7891 61.5391 96.6328C61.7005 96.4766 61.9193 96.3984 62.1953 96.3984C62.4714 96.3984 62.6901 96.4766 62.8516 96.6328C63.013 96.7891 63.0938 97 63.0938 97.2656C63.0938 97.5312 63.013 97.7448 62.8516 97.9062C62.6901 98.0625 62.4714 98.1406 62.1953 98.1406ZM66.8906 105.094C65.7656 105.094 65.2031 104.544 65.2031 103.445V99.6641L65.2734 99.1094L65.6172 97.6172H66.625V103.211C66.625 103.544 66.6875 103.786 66.8125 103.938C66.9375 104.089 67.1406 104.164 67.4219 104.164C67.6562 104.164 67.9557 104.12 68.3203 104.031L68.2656 104.773C67.8854 104.987 67.4271 105.094 66.8906 105.094ZM64.2656 99.9297L64.3203 99.2812C64.6068 99.1979 64.9245 99.1406 65.2734 99.1094H68.2812L68.2188 99.9297H64.2656ZM69.6797 104.953V96.9219L71.1016 97.1484V104.953H69.6797ZM73.2891 104.953V101.023C73.2891 100.31 72.9531 99.9531 72.2812 99.9531C71.75 99.9531 71.2083 100.172 70.6562 100.609L70.5 100.195C71.1562 99.3828 71.974 98.9766 72.9531 98.9766C73.5208 98.9766 73.9557 99.1276 74.2578 99.4297C74.5599 99.7266 74.7109 100.154 74.7109 100.711V104.953H73.2891ZM68.9297 105L68.9766 104.477C69.1224 104.404 69.2708 104.344 69.4219 104.297C69.5729 104.25 69.724 104.208 69.875 104.172L69.6797 104.805V103.688H71.1016V104.805L70.9375 104.234L71.9062 104.461L71.8672 105H68.9297ZM72.6562 105L72.7031 104.445C72.8125 104.388 72.9297 104.339 73.0547 104.297C73.1849 104.25 73.3255 104.208 73.4766 104.172L73.2891 104.805V103.688H74.7109V104.805L74.5391 104.234L75.4922 104.461L75.4531 105H72.6562ZM69.6797 98V97.0234L69.8438 97.3906L68.7891 96.9531L68.8281 96.5781C69.3385 96.3958 69.9219 96.2917 70.5781 96.2656H71.1016V97.6094L69.6797 98ZM79.1484 105.141C78.2526 105.141 77.5391 104.865 77.0078 104.312C76.4818 103.755 76.2188 103.008 76.2188 102.07C76.2188 101.122 76.4844 100.37 77.0156 99.8125C77.5521 99.25 78.2708 98.9688 79.1719 98.9688C80.0677 98.9688 80.7786 99.2474 81.3047 99.8047C81.8307 100.357 82.0938 101.104 82.0938 102.047C82.0938 102.995 81.8281 103.747 81.2969 104.305C80.7656 104.862 80.0495 105.141 79.1484 105.141ZM79.2812 104.336C80.1094 104.336 80.5234 103.643 80.5234 102.258C80.5234 101.461 80.3932 100.849 80.1328 100.422C79.8776 99.9896 79.5104 99.7734 79.0312 99.7734C78.2031 99.7734 77.7891 100.466 77.7891 101.852C77.7891 102.648 77.9167 103.263 78.1719 103.695C78.4323 104.122 78.8021 104.336 79.2812 104.336ZM85.0859 105.133C83.9245 105.133 83.3438 104.523 83.3438 103.305V99.7656L84.7656 99.8516V103.055C84.7656 103.445 84.8359 103.729 84.9766 103.906C85.1224 104.083 85.3516 104.172 85.6641 104.172C86.2161 104.172 86.7812 103.94 87.3594 103.477L87.5078 103.898C86.8099 104.721 86.0026 105.133 85.0859 105.133ZM83.3438 100.773V99.9062L83.5703 100.234L82.6406 99.7578L82.6797 99.3047C83.1536 99.1432 83.7188 99.0547 84.375 99.0391H84.7656V100.312L83.3438 100.773ZM88.2969 104.539L86.875 104.227V99.7812L88.2969 99.8594V104.539ZM86.875 100.773V99.9062L87.1016 100.242L86.1016 99.7344L86.1328 99.3281C86.388 99.2396 86.6667 99.1719 86.9688 99.125C87.276 99.0729 87.5885 99.0443 87.9062 99.0391H88.2969V100.297L86.875 100.773ZM87.2656 105.031L86.9688 103.977L88.2969 103.625V104.523L88.0938 104.148L89.0312 104.422L88.9922 104.938C88.5495 105.01 87.974 105.042 87.2656 105.031ZM92.1094 105.094C90.9844 105.094 90.4219 104.544 90.4219 103.445V99.6641L90.4922 99.1094L90.8359 97.6172H91.8438V103.211C91.8438 103.544 91.9062 103.786 92.0312 103.938C92.1562 104.089 92.3594 104.164 92.6406 104.164C92.875 104.164 93.1745 104.12 93.5391 104.031L93.4844 104.773C93.1042 104.987 92.6458 105.094 92.1094 105.094ZM89.4844 99.9297L89.5391 99.2812C89.8255 99.1979 90.1432 99.1406 90.4922 99.1094H93.5L93.4375 99.9297H89.4844ZM98.2578 105L98.3359 104.156H100.109C101.203 104.156 101.75 103.719 101.75 102.844C101.75 101.911 101.125 101.445 99.875 101.445H98.3359V100.75H99.9531C102.234 100.75 103.375 101.391 103.375 102.672C103.375 103.385 103.065 103.953 102.445 104.375C101.826 104.792 100.992 105 99.9453 105H98.2578ZM97.6016 104.883V97.375H99.0859V104.883H97.6016ZM98.1094 101.172L98.2578 100.68H100.031C100.906 100.68 101.344 100.245 101.344 99.375C101.344 98.5312 100.924 98.1094 100.086 98.1094H98.2188V97.2656H100.164C101.055 97.2656 101.74 97.4323 102.219 97.7656C102.698 98.0938 102.938 98.5651 102.938 99.1797C102.938 99.8203 102.674 100.312 102.148 100.656C101.628 101 100.878 101.172 99.8984 101.172H98.1094ZM96.7734 105L96.8203 104.445C97.0807 104.336 97.4089 104.234 97.8047 104.141L97.6016 104.789V103.656H99.0859V104.789L98.9141 104.203L99.9531 104.43L99.9062 105H96.7734ZM99.9219 97.2656L99.875 97.8203C99.6146 97.9297 99.2865 98.0312 98.8906 98.125L99.0859 97.4766V98.6094H97.6016V97.4766L97.7812 98.0625L96.7422 97.8359L96.7891 97.2656H99.9219ZM107.164 105.141C106.268 105.141 105.555 104.865 105.023 104.312C104.497 103.755 104.234 103.008 104.234 102.07C104.234 101.122 104.5 100.37 105.031 99.8125C105.568 99.25 106.286 98.9688 107.188 98.9688C108.083 98.9688 108.794 99.2474 109.32 99.8047C109.846 100.357 110.109 101.104 110.109 102.047C110.109 102.995 109.844 103.747 109.312 104.305C108.781 104.862 108.065 105.141 107.164 105.141ZM107.297 104.336C108.125 104.336 108.539 103.643 108.539 102.258C108.539 101.461 108.409 100.849 108.148 100.422C107.893 99.9896 107.526 99.7734 107.047 99.7734C106.219 99.7734 105.805 100.466 105.805 101.852C105.805 102.648 105.932 103.263 106.188 103.695C106.448 104.122 106.818 104.336 107.297 104.336ZM111.727 104.953V99.9531L113.148 100.352V104.953H111.727ZM110.977 105L111.023 104.477C111.169 104.404 111.318 104.344 111.469 104.297C111.62 104.25 111.771 104.208 111.922 104.172L111.727 104.797V103.688H113.148V104.797L112.984 104.242L114.266 104.461L114.227 105H110.977ZM112.812 101.125L112.656 100.812C112.938 100.182 113.237 99.7292 113.555 99.4531C113.878 99.1719 114.255 99.0312 114.688 99.0312C114.755 99.0312 114.826 99.0339 114.898 99.0391C114.971 99.0443 115.034 99.0573 115.086 99.0781L114.992 100.266C114.893 100.25 114.786 100.237 114.672 100.227C114.562 100.216 114.469 100.211 114.391 100.211C114.057 100.211 113.766 100.284 113.516 100.43C113.271 100.57 113.036 100.802 112.812 101.125ZM111.727 101.008V100.008L111.953 100.414L110.875 99.8672L110.914 99.4766C111.159 99.3672 111.44 99.276 111.758 99.2031C112.076 99.125 112.409 99.0703 112.758 99.0391L113.102 100.328L111.727 101.008ZM117.938 105.141C117.214 105.141 116.635 104.88 116.203 104.359C115.776 103.839 115.562 103.135 115.562 102.25C115.562 101.245 115.839 100.448 116.391 99.8594C116.943 99.2656 117.682 98.9688 118.609 98.9688C119.411 98.9688 119.984 99.2135 120.328 99.7031L120.078 100.359C119.615 99.9688 119.125 99.7734 118.609 99.7734C118.125 99.7734 117.753 99.9635 117.492 100.344C117.232 100.724 117.102 101.268 117.102 101.977C117.102 102.68 117.229 103.221 117.484 103.602C117.74 103.977 118.107 104.164 118.586 104.164C119.044 104.164 119.521 103.969 120.016 103.578L120.164 103.961C119.503 104.747 118.76 105.141 117.938 105.141ZM120.977 104.547L119.555 104.227V97.0547H120.977V104.547ZM119.555 98V97.0234L119.719 97.3906L118.578 96.9453L118.617 96.5938C119.169 96.401 119.779 96.2917 120.445 96.2656H120.977V97.6094L119.555 98ZM119.945 105.031L119.648 103.977L120.977 103.625V104.523L120.773 104.148L121.711 104.422L121.672 104.938C121.229 105.01 120.654 105.042 119.945 105.031ZM125.484 105.125C124.505 105.125 123.753 104.867 123.227 104.352C122.701 103.836 122.438 103.099 122.438 102.141C122.438 101.167 122.695 100.396 123.211 99.8281C123.732 99.2552 124.432 98.9688 125.312 98.9688C126.104 98.9688 126.714 99.2109 127.141 99.6953C127.568 100.174 127.781 100.865 127.781 101.766C127.781 101.844 127.779 101.93 127.773 102.023C127.768 102.112 127.76 102.193 127.75 102.266L126.266 101.977C126.266 101.19 126.177 100.625 126 100.281C125.823 99.9323 125.534 99.7578 125.133 99.7578C124.357 99.7578 123.969 100.388 123.969 101.648C123.969 103.299 124.635 104.125 125.969 104.125C126.49 104.125 127.034 104.018 127.602 103.805L127.539 104.617C127.289 104.779 126.984 104.904 126.625 104.992C126.266 105.081 125.885 105.125 125.484 105.125ZM123.047 102.266V101.578H127.625L127.75 102.266H123.047ZM129.383 104.953V99.9531L130.805 100.352V104.953H129.383ZM128.633 105L128.68 104.477C128.826 104.404 128.974 104.344 129.125 104.297C129.276 104.25 129.427 104.208 129.578 104.172L129.383 104.797V103.688H130.805V104.797L130.641 104.242L131.922 104.461L131.883 105H128.633ZM130.469 101.125L130.312 100.812C130.594 100.182 130.893 99.7292 131.211 99.4531C131.534 99.1719 131.911 99.0312 132.344 99.0312C132.411 99.0312 132.482 99.0339 132.555 99.0391C132.628 99.0443 132.69 99.0573 132.742 99.0781L132.648 100.266C132.549 100.25 132.443 100.237 132.328 100.227C132.219 100.216 132.125 100.211 132.047 100.211C131.714 100.211 131.422 100.284 131.172 100.43C130.927 100.57 130.693 100.802 130.469 101.125ZM129.383 101.008V100.008L129.609 100.414L128.531 99.8672L128.57 99.4766C128.815 99.3672 129.096 99.276 129.414 99.2031C129.732 99.125 130.065 99.0703 130.414 99.0391L130.758 100.328L129.383 101.008ZM135.352 105.125C134.591 105.125 133.958 104.953 133.453 104.609C133.406 104.396 133.372 104.159 133.352 103.898C133.331 103.638 133.328 103.37 133.344 103.094H134.023L134.688 104.438L134.188 103.984C134.583 104.24 135.013 104.367 135.477 104.367C136.117 104.367 136.438 104.122 136.438 103.633C136.438 103.268 136.177 103 135.656 102.828L134.969 102.617C133.932 102.294 133.414 101.703 133.414 100.844C133.414 100.276 133.615 99.8255 134.016 99.4922C134.422 99.1536 134.964 98.9844 135.641 98.9844C136.25 98.9844 136.802 99.1094 137.297 99.3594C137.391 99.7708 137.43 100.229 137.414 100.734H136.703L136.039 99.3906L136.805 100.109C136.357 99.8646 135.927 99.7422 135.516 99.7422C134.969 99.7422 134.695 99.9661 134.695 100.414C134.695 100.789 134.974 101.065 135.531 101.242L136.219 101.453C136.74 101.62 137.125 101.849 137.375 102.141C137.625 102.432 137.75 102.786 137.75 103.203C137.75 103.792 137.531 104.26 137.094 104.609C136.661 104.953 136.081 105.125 135.352 105.125Z" fill="#505050"/>
<defs>
<filter id="filter0_f_928_669" x="2" y="27.25" width="147" height="3.02524" filterUnits="userSpaceOnUse" color-interpolation-filters="sRGB">
<feFlood flood-opacity="0" result="BackgroundImageFix"/>
<feBlend mode="normal" in="SourceGraphic" in2="BackgroundImageFix" result="shape"/>
<feGaussianBlur stdDeviation="0.5" result="effect1_foregroundBlur_928_669"/>
</filter>
<filter id="filter1_f_928_669" x="2" y="56.6344" width="147" height="32.25" filterUnits="userSpaceOnUse" color-interpolation-filters="sRGB">
<feFlood flood-opacity="0" result="BackgroundImageFix"/>
<feBlend mode="normal" in="SourceGraphic" in2="BackgroundImageFix" result="shape"/>
<feGaussianBlur stdDeviation="0.5" result="effect1_foregroundBlur_928_669"/>
</filter>
</defs>
</svg>
