<svg width="134" height="135" viewBox="0 0 134 135" fill="none" xmlns="http://www.w3.org/2000/svg">
<circle cx="33" cy="33" r="30" stroke="white" stroke-width="6"/>
<path d="M33 3C49.5685 3 63 16.4315 63 33C63 49.5685 49.5685 63 33 63C25.3165 63 18.3076 60.1115 13 55.3611" stroke="#0C7ECF" stroke-width="6"/>
<path d="M23.5955 29.16C22.8062 29.16 22.1128 29.0693 21.5155 28.888C20.9288 28.7067 20.4435 28.456 20.0595 28.136C19.6755 27.8053 19.3875 27.432 19.1955 27.016C19.0035 26.5893 18.9075 26.1307 18.9075 25.64C18.9075 25.0533 19.0515 24.536 19.3395 24.088C19.6382 23.64 20.0115 23.2933 20.4595 23.048C20.0862 22.8027 19.7982 22.4987 19.5955 22.136C19.4035 21.7627 19.3075 21.3307 19.3075 20.84C19.3075 20.2427 19.4622 19.704 19.7715 19.224C20.0808 18.744 20.5502 18.36 21.1795 18.072C21.8088 17.784 22.6142 17.64 23.5955 17.64C24.5662 17.64 25.3662 17.784 25.9955 18.072C26.6248 18.3493 27.0888 18.728 27.3875 19.208C27.6968 19.688 27.8515 20.2267 27.8515 20.824C27.8515 21.304 27.7555 21.736 27.5635 22.12C27.3715 22.4933 27.0942 22.8027 26.7315 23.048C27.2008 23.2827 27.5795 23.6293 27.8675 24.088C28.1555 24.5467 28.2995 25.0693 28.2995 25.656C28.2995 26.296 28.1235 26.8827 27.7715 27.416C27.4302 27.9493 26.9128 28.376 26.2195 28.696C25.5262 29.0053 24.6515 29.16 23.5955 29.16ZM23.5955 27.128C23.9368 27.128 24.2408 27.0693 24.5075 26.952C24.7848 26.824 25.0035 26.6533 25.1635 26.44C25.3235 26.216 25.4035 25.9547 25.4035 25.656C25.4035 25.336 25.3235 25.0693 25.1635 24.856C25.0035 24.6427 24.7848 24.4773 24.5075 24.36C24.2408 24.2427 23.9368 24.184 23.5955 24.184C23.2542 24.184 22.9448 24.2427 22.6675 24.36C22.3902 24.4773 22.1715 24.6427 22.0115 24.856C21.8515 25.0693 21.7715 25.336 21.7715 25.656C21.7715 25.9547 21.8515 26.216 22.0115 26.44C22.1715 26.6533 22.3902 26.824 22.6675 26.952C22.9448 27.0693 23.2542 27.128 23.5955 27.128ZM23.5955 22.248C23.8942 22.248 24.1662 22.1947 24.4115 22.088C24.6568 21.9707 24.8488 21.8213 24.9875 21.64C25.1262 21.448 25.1955 21.224 25.1955 20.968C25.1955 20.712 25.1262 20.488 24.9875 20.296C24.8595 20.104 24.6728 19.9547 24.4275 19.848C24.1822 19.7413 23.9048 19.688 23.5955 19.688C23.2862 19.688 23.0088 19.7413 22.7635 19.848C22.5182 19.9547 22.3262 20.104 22.1875 20.296C22.0595 20.488 21.9955 20.712 21.9955 20.968C21.9955 21.224 22.0595 21.448 22.1875 21.64C22.3262 21.832 22.5182 21.9813 22.7635 22.088C23.0088 22.1947 23.2862 22.248 23.5955 22.248ZM34.4396 29.16C33.6716 29.16 33.005 29.0533 32.4396 28.84C31.8743 28.616 31.405 28.312 31.0316 27.928C30.669 27.544 30.3916 27.096 30.1996 26.584C30.0076 26.072 29.8956 25.5227 29.8636 24.936C29.853 24.648 29.8423 24.3227 29.8316 23.96C29.8316 23.5867 29.8316 23.2133 29.8316 22.84C29.8423 22.456 29.853 22.1147 29.8636 21.816C29.8956 21.2293 30.0076 20.6853 30.1996 20.184C30.4023 19.672 30.6903 19.2293 31.0636 18.856C31.4476 18.472 31.917 18.1733 32.4716 17.96C33.037 17.7467 33.693 17.64 34.4396 17.64C35.197 17.64 35.853 17.7467 36.4076 17.96C36.9623 18.1733 37.4263 18.472 37.7996 18.856C38.1836 19.2293 38.477 19.672 38.6796 20.184C38.8823 20.6853 38.9943 21.2293 39.0156 21.816C39.037 22.1147 39.0476 22.456 39.0476 22.84C39.0583 23.2133 39.0583 23.5867 39.0476 23.96C39.0476 24.3227 39.037 24.648 39.0156 24.936C38.9943 25.5227 38.8823 26.072 38.6796 26.584C38.4876 27.096 38.205 27.544 37.8316 27.928C37.469 28.312 37.005 28.616 36.4396 28.84C35.885 29.0533 35.2183 29.16 34.4396 29.16ZM34.4396 26.84C34.9943 26.84 35.3943 26.664 35.6396 26.312C35.8956 25.9493 36.029 25.464 36.0396 24.856C36.061 24.5467 36.0716 24.2213 36.0716 23.88C36.0823 23.5387 36.0823 23.1973 36.0716 22.856C36.0716 22.5147 36.061 22.2 36.0396 21.912C36.029 21.3253 35.8956 20.8507 35.6396 20.488C35.3943 20.1253 34.9943 19.9387 34.4396 19.928C33.885 19.9387 33.485 20.1253 33.2396 20.488C32.9943 20.8507 32.861 21.3253 32.8396 21.912C32.829 22.2 32.8183 22.5147 32.8076 22.856C32.8076 23.1973 32.8076 23.5387 32.8076 23.88C32.8183 24.2213 32.829 24.5467 32.8396 24.856C32.861 25.464 32.9996 25.9493 33.2556 26.312C33.5116 26.664 33.9063 26.84 34.4396 26.84ZM40.2044 30.344C40.1084 30.344 40.023 30.3067 39.9484 30.232C39.8844 30.168 39.8524 30.0933 39.8524 30.008C39.8524 29.9547 39.8684 29.9013 39.9004 29.848L45.3084 16.808C45.351 16.7227 45.415 16.6373 45.5004 16.552C45.5857 16.4667 45.7137 16.424 45.8844 16.424H47.3244C47.4097 16.424 47.4844 16.4613 47.5484 16.536C47.623 16.6 47.6604 16.6747 47.6604 16.76C47.6604 16.8027 47.6497 16.856 47.6284 16.92L42.1724 29.96C42.151 30.0347 42.0924 30.1147 41.9964 30.2C41.911 30.296 41.783 30.344 41.6124 30.344H40.2044ZM22.5804 47C22.4738 47 22.3778 46.9627 22.2924 46.888C22.2178 46.8133 22.1804 46.7173 22.1804 46.6V38.984L19.9884 40.664C19.8924 40.7387 19.7911 40.7653 19.6844 40.744C19.5884 40.7227 19.5031 40.664 19.4284 40.568L18.4844 39.336C18.4204 39.24 18.3938 39.1387 18.4044 39.032C18.4258 38.9147 18.4898 38.824 18.5964 38.76L22.2764 35.912C22.3404 35.8693 22.3991 35.8427 22.4524 35.832C22.5164 35.8107 22.5858 35.8 22.6604 35.8H24.6604C24.7671 35.8 24.8578 35.8373 24.9324 35.912C25.0178 35.9867 25.0604 36.0827 25.0604 36.2V46.6C25.0604 46.7173 25.0178 46.8133 24.9324 46.888C24.8578 46.9627 24.7671 47 24.6604 47H22.5804ZM31.5256 47.16C30.7576 47.16 30.0909 47.0533 29.5256 46.84C28.9602 46.616 28.4909 46.312 28.1176 45.928C27.7549 45.544 27.4776 45.096 27.2856 44.584C27.0936 44.072 26.9816 43.5227 26.9496 42.936C26.9389 42.648 26.9282 42.3227 26.9176 41.96C26.9176 41.5867 26.9176 41.2133 26.9176 40.84C26.9282 40.456 26.9389 40.1147 26.9496 39.816C26.9816 39.2293 27.0936 38.6853 27.2856 38.184C27.4882 37.672 27.7762 37.2293 28.1496 36.856C28.5336 36.472 29.0029 36.1733 29.5576 35.96C30.1229 35.7467 30.7789 35.64 31.5256 35.64C32.2829 35.64 32.9389 35.7467 33.4936 35.96C34.0482 36.1733 34.5122 36.472 34.8856 36.856C35.2696 37.2293 35.5629 37.672 35.7656 38.184C35.9682 38.6853 36.0802 39.2293 36.1016 39.816C36.1229 40.1147 36.1336 40.456 36.1336 40.84C36.1442 41.2133 36.1442 41.5867 36.1336 41.96C36.1336 42.3227 36.1229 42.648 36.1016 42.936C36.0802 43.5227 35.9682 44.072 35.7656 44.584C35.5736 45.096 35.2909 45.544 34.9176 45.928C34.5549 46.312 34.0909 46.616 33.5256 46.84C32.9709 47.0533 32.3042 47.16 31.5256 47.16ZM31.5256 44.84C32.0802 44.84 32.4802 44.664 32.7256 44.312C32.9816 43.9493 33.1149 43.464 33.1256 42.856C33.1469 42.5467 33.1576 42.2213 33.1576 41.88C33.1682 41.5387 33.1682 41.1973 33.1576 40.856C33.1576 40.5147 33.1469 40.2 33.1256 39.912C33.1149 39.3253 32.9816 38.8507 32.7256 38.488C32.4802 38.1253 32.0802 37.9387 31.5256 37.928C30.9709 37.9387 30.5709 38.1253 30.3256 38.488C30.0802 38.8507 29.9469 39.3253 29.9256 39.912C29.9149 40.2 29.9042 40.5147 29.8936 40.856C29.8936 41.1973 29.8936 41.5387 29.8936 41.88C29.9042 42.2213 29.9149 42.5467 29.9256 42.856C29.9469 43.464 30.0856 43.9493 30.3416 44.312C30.5976 44.664 30.9922 44.84 31.5256 44.84ZM42.4006 47.16C41.6326 47.16 40.9659 47.0533 40.4006 46.84C39.8352 46.616 39.3659 46.312 38.9926 45.928C38.6299 45.544 38.3526 45.096 38.1606 44.584C37.9686 44.072 37.8566 43.5227 37.8246 42.936C37.8139 42.648 37.8032 42.3227 37.7926 41.96C37.7926 41.5867 37.7926 41.2133 37.7926 40.84C37.8032 40.456 37.8139 40.1147 37.8246 39.816C37.8566 39.2293 37.9686 38.6853 38.1606 38.184C38.3632 37.672 38.6512 37.2293 39.0246 36.856C39.4086 36.472 39.8779 36.1733 40.4326 35.96C40.9979 35.7467 41.6539 35.64 42.4006 35.64C43.1579 35.64 43.8139 35.7467 44.3686 35.96C44.9232 36.1733 45.3872 36.472 45.7606 36.856C46.1446 37.2293 46.4379 37.672 46.6406 38.184C46.8432 38.6853 46.9552 39.2293 46.9766 39.816C46.9979 40.1147 47.0086 40.456 47.0086 40.84C47.0192 41.2133 47.0192 41.5867 47.0086 41.96C47.0086 42.3227 46.9979 42.648 46.9766 42.936C46.9552 43.5227 46.8432 44.072 46.6406 44.584C46.4486 45.096 46.1659 45.544 45.7926 45.928C45.4299 46.312 44.9659 46.616 44.4006 46.84C43.8459 47.0533 43.1792 47.16 42.4006 47.16ZM42.4006 44.84C42.9552 44.84 43.3552 44.664 43.6006 44.312C43.8566 43.9493 43.9899 43.464 44.0006 42.856C44.0219 42.5467 44.0326 42.2213 44.0326 41.88C44.0432 41.5387 44.0432 41.1973 44.0326 40.856C44.0326 40.5147 44.0219 40.2 44.0006 39.912C43.9899 39.3253 43.8566 38.8507 43.6006 38.488C43.3552 38.1253 42.9552 37.9387 42.4006 37.928C41.8459 37.9387 41.4459 38.1253 41.2006 38.488C40.9552 38.8507 40.8219 39.3253 40.8006 39.912C40.7899 40.2 40.7792 40.5147 40.7686 40.856C40.7686 41.1973 40.7686 41.5387 40.7686 41.88C40.7792 42.2213 40.7899 42.5467 40.8006 42.856C40.8219 43.464 40.9606 43.9493 41.2166 44.312C41.4726 44.664 41.8672 44.84 42.4006 44.84Z" fill="black" fill-opacity="0.75"/>
<circle cx="33" cy="102" r="30" stroke="white" stroke-width="6"/>
<path d="M33 72C49.5685 72 63 85.4315 63 102C63 118.569 49.5685 132 33 132C25.3165 132 18.3076 129.111 13 124.361" stroke="#0C7ECF" stroke-width="6"/>
<path d="M24.1351 107C24.0285 107 23.9325 106.963 23.8471 106.888C23.7725 106.813 23.7351 106.717 23.7351 106.6V98.984L21.5431 100.664C21.4471 100.739 21.3458 100.765 21.2391 100.744C21.1431 100.723 21.0578 100.664 20.9831 100.568L20.0391 99.336C19.9751 99.24 19.9485 99.1387 19.9591 99.032C19.9805 98.9147 20.0445 98.824 20.1511 98.76L23.8311 95.912C23.8951 95.8693 23.9538 95.8427 24.0071 95.832C24.0711 95.8107 24.1405 95.8 24.2151 95.8H26.2151C26.3218 95.8 26.4125 95.8373 26.4871 95.912C26.5725 95.9867 26.6151 96.0827 26.6151 96.2V106.6C26.6151 106.717 26.5725 106.813 26.4871 106.888C26.4125 106.963 26.3218 107 26.2151 107H24.1351ZM28.3763 108.344C28.2803 108.344 28.1949 108.307 28.1203 108.232C28.0563 108.168 28.0243 108.093 28.0243 108.008C28.0243 107.955 28.0403 107.901 28.0723 107.848L33.4803 94.808C33.5229 94.7227 33.5869 94.6373 33.6723 94.552C33.7576 94.4667 33.8856 94.424 34.0563 94.424H35.4963C35.5816 94.424 35.6563 94.4613 35.7203 94.536C35.7949 94.6 35.8323 94.6747 35.8323 94.76C35.8323 94.8027 35.8216 94.856 35.8003 94.92L30.3443 107.96C30.3229 108.035 30.2643 108.115 30.1683 108.2C30.0829 108.296 29.9549 108.344 29.7843 108.344H28.3763ZM41.0731 107.176C40.0705 107.176 39.2331 107.021 38.5611 106.712C37.8891 106.392 37.3771 105.981 37.0251 105.48C36.6838 104.968 36.5025 104.419 36.4811 103.832C36.4811 103.736 36.5131 103.656 36.5771 103.592C36.6411 103.528 36.7211 103.496 36.8171 103.496H38.9611C39.0998 103.496 39.2065 103.528 39.2811 103.592C39.3665 103.645 39.4305 103.715 39.4731 103.8C39.5691 104.045 39.6918 104.248 39.8411 104.408C40.0011 104.568 40.1825 104.685 40.3851 104.76C40.5985 104.835 40.8331 104.872 41.0891 104.872C41.3878 104.872 41.6651 104.808 41.9211 104.68C42.1771 104.552 42.3798 104.365 42.5291 104.12C42.6891 103.864 42.7691 103.56 42.7691 103.208C42.7691 102.888 42.6945 102.611 42.5451 102.376C42.4065 102.141 42.2091 101.955 41.9531 101.816C41.6971 101.677 41.4091 101.608 41.0891 101.608C40.8331 101.608 40.6251 101.64 40.4651 101.704C40.3051 101.757 40.1718 101.827 40.0651 101.912C39.9585 101.997 39.8625 102.072 39.7771 102.136C39.6918 102.189 39.5958 102.216 39.4891 102.216H37.3931C37.2971 102.216 37.2118 102.184 37.1371 102.12C37.0731 102.045 37.0411 101.96 37.0411 101.864L37.6171 96.28C37.6385 96.12 37.6971 96.0027 37.7931 95.928C37.8891 95.8427 38.0065 95.8 38.1451 95.8H44.5611C44.6785 95.8 44.7745 95.8373 44.8491 95.912C44.9238 95.9867 44.9611 96.0827 44.9611 96.2V97.704C44.9611 97.8213 44.9238 97.9173 44.8491 97.992C44.7745 98.0667 44.6785 98.104 44.5611 98.104H39.9211L39.7131 100.184C39.9478 100.024 40.2198 99.896 40.5291 99.8C40.8491 99.6933 41.2811 99.64 41.8251 99.64C42.3371 99.64 42.8225 99.7253 43.2811 99.896C43.7505 100.067 44.1665 100.312 44.5291 100.632C44.9025 100.952 45.1905 101.336 45.3931 101.784C45.6065 102.221 45.7131 102.717 45.7131 103.272C45.7131 104.029 45.5265 104.701 45.1531 105.288C44.7905 105.875 44.2625 106.339 43.5691 106.68C42.8758 107.011 42.0438 107.176 41.0731 107.176Z" fill="black" fill-opacity="0.75"/>
<path fill-rule="evenodd" clip-rule="evenodd" d="M103 85C103 84.2044 103.316 83.4413 103.879 82.8787C104.441 82.3161 105.204 82 106 82H114C114.796 82 115.559 82.3161 116.121 82.8787C116.684 83.4413 117 84.2044 117 85H120C120.796 85 121.559 85.3161 122.121 85.8787C122.684 86.4413 123 87.2044 123 88V103H121V88C121 87.7348 120.895 87.4804 120.707 87.2929C120.52 87.1054 120.265 87 120 87H117C117 87.7956 116.684 88.5587 116.121 89.1213C115.559 89.6839 114.796 90 114 90H106C105.204 90 104.441 89.6839 103.879 89.1213C103.316 88.5587 103 87.7956 103 87H100C99.7348 87 99.4804 87.1054 99.2929 87.2929C99.1054 87.4804 99 87.7348 99 88V116C99 116.265 99.1054 116.52 99.2929 116.707C99.4804 116.895 99.7348 117 100 117H112V119H100C99.2044 119 98.4413 118.684 97.8787 118.121C97.3161 117.559 97 116.796 97 116V88C97 87.2044 97.3161 86.4413 97.8787 85.8787C98.4413 85.3161 99.2044 85 100 85H103ZM106 84C105.735 84 105.48 84.1054 105.293 84.2929C105.105 84.4804 105 84.7348 105 85V87C105 87.2652 105.105 87.5196 105.293 87.7071C105.48 87.8946 105.735 88 106 88H114C114.265 88 114.52 87.8946 114.707 87.7071C114.895 87.5196 115 87.2652 115 87V85C115 84.7348 114.895 84.4804 114.707 84.2929C114.52 84.1054 114.265 84 114 84H106ZM109 94V97H106V99H109V102H111V99H114V97H111V94H109ZM114 105C113.735 105 113.48 105.105 113.293 105.293C113.105 105.48 113 105.735 113 106V112.789C113 113.941 113.285 115.076 113.828 116.092C114.372 117.108 115.158 117.974 116.117 118.613L119.445 120.833C119.609 120.943 119.802 121.001 120 121.001C120.198 121.001 120.391 120.943 120.555 120.833L123.883 118.613C124.842 117.974 125.628 117.108 126.171 116.092C126.715 115.076 127 113.942 127 112.79V106C127 105.735 126.895 105.48 126.707 105.293C126.52 105.105 126.265 105 126 105H114ZM123.707 110.707L119.707 114.707C119.519 114.894 119.265 115 119 115C118.735 115 118.481 114.894 118.293 114.707L116.293 112.707L117.707 111.293L119 112.586L122.293 109.293L123.707 110.707Z" fill="#0C7ECF"/>
<path d="M101.125 46.4375C106.579 46.4375 111 42.1842 111 36.9375C111 31.6908 106.579 27.4375 101.125 27.4375C95.6712 27.4375 91.25 31.6908 91.25 36.9375C91.25 42.1842 95.6712 46.4375 101.125 46.4375Z" fill="#83BF4F"/>
<path d="M101.125 35.375C106.303 35.375 110.5 31.3456 110.5 26.375C110.5 21.4044 106.303 17.375 101.125 17.375C95.9473 17.375 91.75 21.4044 91.75 26.375C91.75 31.3456 95.9473 35.375 101.125 35.375Z" fill="#83BF4F"/>
<path d="M111.375 32.875C116.725 32.875 121.062 28.7056 121.062 23.5625C121.062 18.4193 116.725 14.25 111.375 14.25C106.025 14.25 101.688 18.4193 101.688 23.5625C101.688 28.7056 106.025 32.875 111.375 32.875Z" fill="#83BF4F"/>
<path d="M120.625 38.625C125.112 38.625 128.75 35.1272 128.75 30.8125C128.75 26.4978 125.112 23 120.625 23C116.138 23 112.5 26.4978 112.5 30.8125C112.5 35.1272 116.138 38.625 120.625 38.625Z" fill="#83BF4F"/>
<path d="M114.688 45.9375C119.175 45.9375 122.812 42.4397 122.812 38.125C122.812 33.8103 119.175 30.3125 114.688 30.3125C110.2 30.3125 106.562 33.8103 106.562 38.125C106.562 42.4397 110.2 45.9375 114.688 45.9375Z" fill="#83BF4F"/>
<path d="M108.062 53C108.25 50.5 107.875 47.875 107.5 45.125C107.125 42.375 106.625 39.5625 106.625 36.6875C106.562 33.8125 106.937 30.875 107.937 28.1875C108.875 25.5 110.312 23.0625 112 20.875C110.562 23.25 109.5 25.8125 108.937 28.5C108.375 31.125 108.375 33.875 108.75 36.5C109.125 39.125 109.875 41.75 110.687 44.4375C111.437 47.125 112.25 49.9375 112.437 53H108.062Z" fill="black"/>
<path d="M107.75 35.625C109 35.75 110.375 35.6875 111.687 35.5625C113 35.4375 114.312 35.125 115.562 34.6875C116.812 34.25 118 33.625 119.062 32.8125C120.125 32 121.062 31 121.75 29.8125C121.125 31 120.312 32.125 119.25 33.0625C118.25 34 117.062 34.6875 115.75 35.25C114.5 35.8125 113.125 36.1875 111.812 36.5C110.437 36.75 109.062 36.9375 107.625 36.875L107.75 35.625ZM107.375 34.75C106.437 34.1875 105.625 33.5625 104.875 32.9375C104.125 32.25 103.375 31.5 102.75 30.75C101.5 29.125 100.563 27.1875 100.438 25.1875C100.75 27.1875 101.875 28.9375 103.25 30.3125C103.937 31 104.687 31.625 105.5 32.1875C106.312 32.75 107.187 33.25 108 33.625L107.375 34.75V34.75ZM108.375 41.875C107.312 41.8125 106.312 41.625 105.312 41.375C104.312 41.125 103.375 40.75 102.437 40.25C100.625 39.25 99.0625 37.8125 98.125 36C99.25 37.6875 100.875 38.9375 102.687 39.625C103.562 40 104.562 40.25 105.5 40.4375C106.437 40.625 107.437 40.6875 108.375 40.625V41.875" fill="black"/>
<path d="M96.125 39.1875C96.125 40.5625 95 41.6875 95 41.6875C95 41.6875 93.875 40.5625 93.875 39.1875C93.875 37.8125 95 36.6875 95 36.6875C95 36.6875 96.125 37.8125 96.125 39.1875ZM125.062 33.8125C125.062 35.1875 123.937 36.3125 123.937 36.3125C123.937 36.3125 122.812 35.1875 122.812 33.8125C122.812 32.4375 123.937 31.3125 123.937 31.3125C123.937 31.3125 125.062 32.4375 125.062 33.8125ZM99.25 42.375C99.25 43.75 98.125 44.875 98.125 44.875C98.125 44.875 97 43.75 97 42.375C97 41 98.125 39.875 98.125 39.875C98.125 39.875 99.25 41 99.25 42.375ZM96.125 26.0625C96.125 27.4375 95 28.5625 95 28.5625C95 28.5625 93.875 27.4375 93.875 26.0625C93.875 24.6875 95 23.5625 95 23.5625C95 23.5625 96.125 24.6875 96.125 26.0625ZM99.25 22.4375C99.25 23.8125 98.125 24.9375 98.125 24.9375C98.125 24.9375 97 23.8125 97 22.4375C97 21.0625 98.125 19.9375 98.125 19.9375C98.125 19.9375 99.25 21.0625 99.25 22.4375ZM115.312 24.25C115.312 25.625 114.187 26.75 114.187 26.75C114.187 26.75 113.125 25.625 113.125 24.25C113.125 22.875 114.25 21.75 114.25 21.75C114.25 21.75 115.312 22.875 115.312 24.25ZM118.437 20.875C118.437 22.25 117.312 23.375 117.312 23.375C117.312 23.375 116.187 22.25 116.187 20.875C116.187 19.5 117.312 18.375 117.312 18.375C117.312 18.375 118.437 19.5 118.437 20.875V20.875ZM103.875 35.375C103.875 36.75 102.75 37.875 102.75 37.875C102.75 37.875 101.625 36.75 101.625 35.375C101.625 34 102.75 32.875 102.75 32.875C102.75 32.875 103.875 34 103.875 35.375ZM100.375 32.1875C100.375 33.5625 99.25 34.6875 99.25 34.6875C99.25 34.6875 98.125 33.5625 98.125 32.1875C98.125 30.8125 99.25 29.6875 99.25 29.6875C99.25 29.6875 100.375 30.8125 100.375 32.1875ZM106.312 26.0625C106.312 27.4375 105.187 28.5625 105.187 28.5625C105.187 28.5625 104.062 27.4375 104.062 26.0625C104.062 24.6875 105.187 23.5625 105.187 23.5625C105.187 23.5625 106.312 24.6875 106.312 26.0625ZM108.75 21.75C108.75 23.125 107.625 24.25 107.625 24.25C107.625 24.25 106.5 23.125 106.5 21.75C106.5 20.375 107.625 19.25 107.625 19.25C107.625 19.25 108.75 20.375 108.75 21.75ZM112.125 32.1875C112.125 33.5625 111 34.6875 111 34.6875C111 34.6875 109.875 33.5625 109.875 32.1875C109.875 30.8125 111 29.6875 111 29.6875C111 29.6875 112.125 30.8125 112.125 32.1875V32.1875ZM120.625 37.875C120.625 39.25 119.5 40.375 119.5 40.375C119.5 40.375 118.375 39.25 118.375 37.875C118.375 36.5 119.5 35.375 119.5 35.375C119.5 35.375 120.625 36.5 120.625 37.875ZM118.437 27.4375C118.437 28.8125 117.312 29.9375 117.312 29.9375C117.312 29.9375 116.187 28.8125 116.187 27.4375C116.187 26.0625 117.312 24.9375 117.312 24.9375C117.312 24.9375 118.437 26.0625 118.437 27.4375ZM114.687 39.875C114.687 41.25 113.562 42.375 113.562 42.375C113.562 42.375 112.437 41.25 112.437 39.875C112.437 38.5 113.562 37.375 113.562 37.375C113.562 37.375 114.687 38.5 114.687 39.875ZM117.625 42.6875C117.625 44.0625 116.5 45.1875 116.5 45.1875C116.5 45.1875 115.375 44.0625 115.375 42.6875C115.375 41.3125 116.5 40.1875 116.5 40.1875C116.5 40.1875 117.625 41.3125 117.625 42.6875Z" fill="#75A843"/>
</svg>
